/* XPM */
static char *result[] = {
/* columns rows colors chars-per-pixel */
"48 48 6 1 ",
"  c #353540",
". c #735B42",
"X c #EEB551",
"o c #D2C1B1",
"O c #EDE4DA",
"+ c None",
/* pixels */
"++++++++                             +++++++++++",
"++++++++                             +++++++++++",
"++++++++                             +++++++++++",
"++++++++   XXXXXXXXXXXXXXXXOOOOOOOO  +++++++++++",
"++++++++   XXXXXXXXXXXXXXXXOOOOOOOO  +++++++++++",
"++++++++   XXXXXXXXXXXXXXXXXXXXXOOO  +++++++++++",
"++++++++   XXXXXXXXXXXXXXXXXXXXXOOO  +++++++++++",
"++++++++   XXXXXXXXXXXXXXXXXXXXXOOO  +++++++++++",
"++++++++   XXXXXoooooooooooooXXXXXX  +++++++++++",
"++++++++   XXXXXoooooooooooooXXXXXX  +++++++++++",
"++++++++   XXXXXoooooooooooooXXXXXX  +++++++++++",
"++++++++     oooooooooooooooooooXXX  +++++++++++",
"++++++++     oooooooooooooooooooXXX  +++++++++++",
"+++++++++++     oooooooo     oooXXX  +++++++++++",
"+++++++++++     oooooooo     oooXXX  +++++++++++",
"+++++++++++     oooooooo     oooXXX  +++++++++++",
"+++++++++++     oooooooo     oooooo  +++++++++++",
"+++++++++++     oooooooo     oooooo  +++++++++++",
"+++++++++++     oooooooo     oooooo  +++++++++++",
"+++++++++++  oooooooooooooooooooooo  +++++++++++",
"+++++++++++  oooooooooooooooooooooo  +++++++++++",
"+++++++++++  oooooooooooooooooooooo  +++++++++++",
"+++++++++++  oooooooooooooooooooooo  +++++++++++",
"+++++++++++  oooooooooooooooooooooo  +++++++++++",
"+++++++++++  oooooooooooooooooooooo  +++++++++++",
"+++++++++++  oooooooooooooooooooooo  +++++++++++",
"+++++++++++  oooooooooooooooooooooo  +++++++++++",
"+++++++++++  ......oo..............  +++++++++++",
"+++++++++++  ......oo..............  +++++++++++",
"+++++++++++  ......................  +++++++++++",
"+++++++++++  ......................  +++++++++++",
"+++++++++++  ......................  +++++++++++",
"++++++++     ......................     ++++++++",
"++++++++     ......................     ++++++++",
"++++++++     ......................     ++++++++",
"++++++++   ........          ........   ++++++++",
"++++++++   ........          ........   ++++++++",
"++++++++             ++++++        ..   ++++++++",
"++++++++             ++++++        ..   ++++++++",
"++++++++             ++++++        ..   ++++++++",
"++++++++++++++++++++++++++++++++        ++++++++",
"++++++++++++++++++++++++++++++++        ++++++++",
"++++++++++++++++++++++++++++++++        ++++++++",
"++++++++++++++++++++++++++++++++++++++++++++++++",
"++++++++++++++++++++++++++++++++++++++++++++++++",
"++++++++++++++++++++++++++++++++++++++++++++++++",
"++++++++++++++++++++++++++++++++++++++++++++++++",
"++++++++++++++++++++++++++++++++++++++++++++++++"
};
