/* XPM */
static char *result[] = {
/* columns rows colors chars-per-pixel */
"48 48 5 1 ",
"  c #353540",
". c #EEB551",
"X c #7C6DA2",
"o c #EDE4DA",
"O c None",
/* pixels */
"OOOOOOOOOOOOOOOOOOOOOOOOOOOOOOOOOOOOOOOOOOOOOOOO",
"OOOOOOOOOOOOOOOOOOOOOOOOOOOOOOOOOOOOOOOOOOOOOOOO",
"OOOOOOOOOOOOOOOOOOOOOOOOOOOOOOOOOOOOOOOOOOOOOOOO",
"OOOOOOOO                                OOOOOOOO",
"OOOOOOOO                                OOOOOOOO",
"OOOOOOOO                                OOOOOOOO",
"OOOOOOOO   XXXXXXXXXXXXXXXXXXXoooooooo  OOOOOOOO",
"OOOOOOOO   XXXXXXXXXXXXXXXXXXXoooooooo  OOOOOOOO",
"OOOOOOOO   XXXXXXXXXXXXXXXXXXXXXXXXooo  OOOOOOOO",
"OOOOOOOO   XXXXXXXXXXXXXXXXXXXXXXXXooo  OOOOOOOO",
"OOOOOOOO   XXXXXXXXXXXXXXXXXXXXXXXXooo  OOOOOOOO",
"OOOOOOOO   XXXXX           XXXXXXXXXXX  OOOOOOOO",
"OOOOOOOO   XXXXX           XXXXXXXXXXX  OOOOOOOO",
"OOOOOOOO   XXXXX           XXXXXXXXXXX  OOOOOOOO",
"OOOOOOOO   XXX                XXXXXXXX  OOOOOOOO",
"OOOOOOOO   XXX                XXXXXXXX  OOOOOOOO",
"OOOOOOOO   XXXoo        ooooooXXXXXXXX  OOOOOOOO",
"OOOOOOOO   XXXoo        ooooooXXXXXXXX  OOOOOOOO",
"OOOOOOOO   XXXoo        ooooooXXXXXXXX  OOOOOOOO",
"OOOOOOOO   XXXoo        ooooooXXXXXXXX  OOOOOOOO",
"OOOOOOOO   XXXoo        ooooooXXXXXXXX  OOOOOOOO",
"OOOOOOOO   XXXoo        ooooooXXXXXXXX  OOOOOOOO",
"OOOOOOOO   XXX                XXXXXXXX  OOOOOOOO",
"OOOOOOOO   XXX                XXXXXXXX  OOOOOOOO",
"OOOOOOOO   XXXXX           XXXXXXXXXXX  OOOOOOOO",
"OOOOOOOO   XXXXX           XXXXXXXXXXX  OOOOOOOO",
"OOOOOOOO   XXXXX           XXXXXXXXXXX  OOOOOOOO",
"OOOOOOOO   XXXXXXXX     XXXXXXXXXXXXXX  OOOOOOOO",
"OOOOOOOO   XXXXXXXX     XXXXXXXXXXXXXX  OOOOOOOO",
"OOOOOOOO   XXXXXXXX     XXXXXXXXXXXXXX  OOOOOOOO",
"OOOOOOOO      XXXXX.....XXXXXXXXXXX     OOOOOOOO",
"OOOOOOOO      XXXXX.....XXXXXXXXXXX     OOOOOOOO",
"OOOOOOOOOOO   XXXXX     XXXXXXXXXXX   OOOOOOOOOO",
"OOOOOOOOOOO   XXXXX     XXXXXXXXXXX   OOOOOOOOOO",
"OOOOOOOOOOO   XXXXX     XXXXXXXXXXX   OOOOOOOOOO",
"OOOOOOOOOOO   XXXXX     XXXXXXXXXXX     OOOOOOOO",
"OOOOOOOOOOO   XXXXX     XXXXXXXXXXX     OOOOOOOO",
"OOOOOOOOOOO   XXXXX     XXXXXXXXXXX     OOOOOOOO",
"OOOOOOOOOOO   XXXXX     XXXXXXXXXXXXXX     OOOOO",
"OOOOOOOOOOO   XXXXX     XXXXXXXXXXXXXX     OOOOO",
"OOOOOOOOOOO   XXXXX     XXXXXXXXXXXXXXXX   OOOOO",
"OOOOOOOOOOO   XXXXX     XXXXXXXXXXXXXXXX   OOOOO",
"OOOOOOOOOOO   XXXXX     XXXXXXXXXXXXXXXX   OOOOO",
"OOOOOOOOOOO   XX           XXXXXXXXXXXXX   OOOOO",
"OOOOOOOOOOO   XX           XXXXXXXXXXXXX   OOOOO",
"OOOOOOOOOOO   XX           XXXXXXXXXXXXX   OOOOO",
"OOOOOOOOOOO                                OOOOO",
"OOOOOOOOOOO                                OOOOO"
};
