/* XPM */
static char *result[] = {
/* columns rows colors chars-per-pixel */
"48 48 5 1 ",
"  c #353540",
". c #EEB551",
"X c #7C6DA2",
"o c #EDE4DA",
"O c None",
/* pixels */
"OOOOOOOOOOOOOOOOOOOOOOOOOOOOOOOOOOOOOOOOOOOOOOOO",
"OOOOOOOOOOOOOOOOOOOOOOOOOOOOOOOOOOOOOOOOOOOOOOOO",
"OOOOOOOOOOOOOOOOOOOOOOOOOOOOOOOOOOOOOOOOOOOOOOOO",
"OOOOOOOO                                OOOOOOOO",
"OOOOOOOO                                OOOOOOOO",
"OOOOOOOO                                OOOOOOOO",
"OOOOOOOO  XXXXXXXXXXXXXXXXXXXoooooooo   OOOOOOOO",
"OOOOOOOO  XXXXXXXXXXXXXXXXXXXoooooooo   OOOOOOOO",
"OOOOOOOO  XXXXXXXXXXXXXXXXXXXXXXXXooo   OOOOOOOO",
"OOOOOOOO  XXXXXXXXXXXXXXXXXXXXXXXXooo   OOOOOOOO",
"OOOOOOOO  XXXXXXXXXXXXXXXXXXXXXXXXooo   OOOOOOOO",
"OOOOOOOO  XXXXXX          XXXXXXXXXXX   OOOOOOOO",
"OOOOOOOO  XXXXXX          XXXXXXXXXXX   OOOOOOOO",
"OOOOOOOO  XXXXXX          XXXXXXXXXXX   OOOOOOOO",
"OOOOOOOO  XXX                XXXXXXXX   OOOOOOOO",
"OOOOOOOO  XXX                XXXXXXXX   OOOOOOOO",
"OOOOOOOO  XXXooo        oooooXXXXXXXX   OOOOOOOO",
"OOOOOOOO  XXXooo        oooooXXXXXXXX   OOOOOOOO",
"OOOOOOOO  XXXooo        oooooXXXXXXXX   OOOOOOOO",
"OOOOOOOO  XXXooo        oooooXXXXXXXX   OOOOOOOO",
"OOOOOOOO  XXXooo        oooooXXXXXXXX   OOOOOOOO",
"OOOOOOOO  XXXooo        oooooXXXXXXXX   OOOOOOOO",
"OOOOOOOO  XXX                XXXXXXXX   OOOOOOOO",
"OOOOOOOO  XXX                XXXXXXXX   OOOOOOOO",
"OOOOOOOO  XXXXXX          XXXXXXXXXXX   OOOOOOOO",
"OOOOOOOO  XXXXXX          XXXXXXXXXXX   OOOOOOOO",
"OOOOOOOO  XXXXXX          XXXXXXXXXXX   OOOOOOOO",
"OOOOOOOO  XXXXXXXX      XXXXXXXXXXXXX   OOOOOOOO",
"OOOOOOOO  XXXXXXXX      XXXXXXXXXXXXX   OOOOOOOO",
"OOOOOOOO  XXXXXXXX      XXXXXXXXXXXXX   OOOOOOOO",
"OOOOOOOO     XXXXX......XXXXXXXXXX      OOOOOOOO",
"OOOOOOOO     XXXXX......XXXXXXXXXX      OOOOOOOO",
"OOOOOOOOOO   XXXXX      XXXXXXXXXX   OOOOOOOOOOO",
"OOOOOOOOOO   XXXXX      XXXXXXXXXX   OOOOOOOOOOO",
"OOOOOOOOOO   XXXXX      XXXXXXXXXX   OOOOOOOOOOO",
"OOOOOOOOOO   XXXXX      XXXXXXXXXX      OOOOOOOO",
"OOOOOOOOOO   XXXXX      XXXXXXXXXX      OOOOOOOO",
"OOOOOOOOOO   XXXXX      XXXXXXXXXX      OOOOOOOO",
"OOOOOOOOOO   XXXXX      XXXXXXXXXXXXX     OOOOOO",
"OOOOOOOOOO   XXXXX      XXXXXXXXXXXXX     OOOOOO",
"OOOOOOOOOO   XXXXX      XXXXXXXXXXXXXXXX  OOOOOO",
"OOOOOOOOOO   XXXXX      XXXXXXXXXXXXXXXX  OOOOOO",
"OOOOOOOOOO   XXXXX      XXXXXXXXXXXXXXXX  OOOOOO",
"OOOOOOOOOO   XXX          XXXXXXXXXXXXXX  OOOOOO",
"OOOOOOOOOO   XXX          XXXXXXXXXXXXXX  OOOOOO",
"OOOOOOOOOO   XXX          XXXXXXXXXXXXXX  OOOOOO",
"OOOOOOOOOO                                OOOOOO",
"OOOOOOOOOO                                OOOOOO"
};
