/* XPM */
static char *result[] = {
/* columns rows colors chars-per-pixel */
"48 48 5 1 ",
"  c #353540",
". c #EEB551",
"X c #7C6DA2",
"o c #EDE4DA",
"O c None",
/* pixels */
"OOOOOOOOOOOOOOOOOOOOOOOOOOOOOOOOOOOOOOOOOOOOOOOO",
"OOOOOOOOOOOOOOOOOOOOOOOOOOOOOOOOOOOOOOOOOOOOOOOO",
"OOOOOOOOOOOOOOOOOOOOOOOOOOOOOOOOOOOOOOOOOOOOOOOO",
"OOOOOOOOOOOOOOOOOOOOOOOOOOOOOOOOOOOOOOOOOOOOOOOO",
"OOOOOOOOOOOOOOOOOOOOOOOOOOOOOOOOOOOOOOOOOOOOOOOO",
"OOOOOOOOOOOOOOOOOOOOOOOOOOOOOOOOOOOOOOOOOOOOOOOO",
"OOOOOOOOOOOOOOOOOOOOOOOOOOOOOOOOOOOOOOOOOOOOOOOO",
"OOOOOOOOOOOOOOOOOOOOOOOOOOOOOOOOOOOOOOOOOOOOOOOO",
"OOOOOOOOOOOOOOOOOOOOOOOOOOOOOOOOOOOOOOOOOOOOOOOO",
"OOOOOOOOOOOOOOOOOOOOOOOOOOOOOOOOOOOOOOOOOOOOOOOO",
"OOOOOOOOOOOOOOOOOOOOOOOOOOOOOOOOOOOOOOOOOOOOOOOO",
"OOOOO                                OOOOOOOOOOO",
"OOOOO                                OOOOOOOOOOO",
"OOOOO                                OOOOOOOOOOO",
"OOOOO   XXXXXXXXXXXXXXXXXXoooooooo   OOOOOOOOOOO",
"OOOOO   XXXXXXXXXXXXXXXXXXoooooooo   OOOOOOOOOOO",
"OOOOO   XXXXXXXXXXXXXXXXXXXXXXXXoo   OOOOOOOOOOO",
"OOOOO   XXXXXXXXXXXXXXXXXXXXXXXXoo   OOOOOOOOOOO",
"OOOOO   XXXXXXXXXXXXXXXXXXXXXXXXoo   OOOOOOOOOOO",
"OOOOO   XXXXX           XXXXXXXXXX   OOOOOOOOOOO",
"OOOOO   XXXXX           XXXXXXXXXX   OOOOOOOOOOO",
"OOOOO   XXXXX           XXXXXXXXXX   OOOOOOOOOOO",
"OOOOO   XX                XXXXXXXX   OOOOOOOOOOO",
"OOOOO   XX                XXXXXXXX   OOOOOOOOOOO",
"OOOOO   XXooo        oooooXXXXXXXX   OOOOOOOOOOO",
"OOOOO   XXooo        oooooXXXXXXXX   OOOOOOOOOOO",
"OOOOO   XXooo        oooooXXXXXXXX   OOOOOOOOOOO",
"OOOOO   XXooo        oooooXXXXXXXX   OOOOOOOOOOO",
"OOOOO   XXooo        oooooXXXXXXXX   OOOOOOOOOOO",
"OOOOO   XXooo        oooooXXXXXXXX   OOOOOOOOOOO",
"OOOOO   XXXXX           XXXXXXXXXX   OOOOOOOOOOO",
"OOOOO   XXXXX           XXXXXXXXXX   OOOOOOOOOOO",
"OOOOO   XXXXXXXX     XXXXXXXXXXXXX      OOOOOOOO",
"OOOOO   XXXXXXXX     XXXXXXXXXXXXX      OOOOOOOO",
"OOOOO   XXXXXXXX     XXXXXXXXXXXXX      OOOOOOOO",
"OOOOO   XXXXXXXX.....XXXXXXXXXXXXXXXX     OOOOOO",
"OOOOO   XXXXXXXX.....XXXXXXXXXXXXXXXX     OOOOOO",
"OOOOO   XXXXXXXX.....XXXXXXXXXXXXXXXX     OOOOOO",
"OOOOO   XXXXXXXX     XXXXXXXXXXXXXXXXXXX     OOO",
"OOOOO   XXXXXXXX     XXXXXXXXXXXXXXXXXXX     OOO",
"OOOOO   XXXXXXXX     XXXXXXXXXXXXXXXXXXXXX   OOO",
"OOOOO   XXXXXXXX     XXXXXXXXXXXXXXXXXXXXX   OOO",
"OOOOO   XXXXXXXX     XXXXXXXXXXXXXXXXXXXXX   OOO",
"OOOOO   XXXXX           XXXXXXXXXXXXXXXXXX   OOO",
"OOOOO   XXXXX           XXXXXXXXXXXXXXXXXX   OOO",
"OOOOO   XXXXX           XXXXXXXXXXXXXXXXXX   OOO",
"OOOOO                                        OOO",
"OOOOO                                        OOO"
};
