/* XPM */
static char *result[] = {
/* columns rows colors chars-per-pixel */
"48 48 4 1 ",
"  c #353540",
". c #7C6DA2",
"X c #EDE4DA",
"o c None",
/* pixels */
"oooooooooooooooooooooooooooooooooooooooooooooooo",
"oooooooooooooooooooooooooooooooooooooooooooooooo",
"oooooooooooooooooooooooooooooooooooooooooooooooo",
"oooooooooooooooooooooooooooooooooooooooooooooooo",
"oooooooooooooooooooooooooooooooooooooooooooooooo",
"oooooooooooooooooooooooooooooooooooooooooooooooo",
"oooooooooooooooooooooooooooooooooooooooooooooooo",
"oooooooooooooooooooooooooooooooooooooooooooooooo",
"oooooooo                                oooooooo",
"oooooooo                                oooooooo",
"oooooooo                                oooooooo",
"oooooooo  ...XXXXXXXX.................  oooooooo",
"oooooooo  ...XXXXXXXX.................  oooooooo",
"oooooooo  ............................  oooooooo",
"oooooooo  ............................  oooooooo",
"oooooooo  ............................  oooooooo",
"oooooooo  ............................  oooooooo",
"oooooooo  ............................  oooooooo",
"oooooooo  ............................  oooooooo",
"oooooooo  ............................  oooooooo",
"oooooooo  ............................  oooooooo",
"oooooooo  ............................  oooooooo",
"oooooooo  ............................  oooooooo",
"oooooooo  ............................  oooooooo",
"oooooooo  ............................  oooooooo",
"oooooooo  ............................  oooooooo",
"oooooooo  ............................  oooooooo",
"oooooooo  ............................  oooooooo",
"oooooooo  ............................  oooooooo",
"oooooooo  ............................  oooooooo",
"oooooooo  ............................  oooooooo",
"oooooooo  ............................  oooooooo",
"oooooooo  ............................  oooooooo",
"oooooooo  ............................  oooooooo",
"oooooooo  ............................  oooooooo",
"ooooo     ............................     ooooo",
"ooooo     ............................     ooooo",
"ooooo     ............................     ooooo",
"ooo     ................................     ooo",
"ooo     ................................     ooo",
"ooo  ......................................  ooo",
"ooo  ......................................  ooo",
"ooo  ......................................  ooo",
"ooo  ......................................  ooo",
"ooo  ......................................  ooo",
"ooo  ......................................  ooo",
"ooo                                          ooo",
"ooo                                          ooo"
};
