/* XPM */
static char *result[] = {
/* columns rows colors chars-per-pixel */
"48 48 5 1 ",
"  c #353540",
". c #735B42",
"X c #557D55",
"o c #EDE4DA",
"O c None",
/* pixels */
"OOOOOOOOOOOOOOOOOOOOOOOOOOOOOOOOOOOOOOOOOOOOOOOO",
"OOOOOOOOOOOOOOOOOOOOOOOOOOOOOOOOOOOOOOOOOOOOOOOO",
"OOOOOOOOOOOOOOOOOOOOOOOOOOOOOOOOOOOOOOOOOOOOOOOO",
"OOOOOOOOOOOOOOOOOOOOOOOOOOOOOOOOOOOOOOOOOOOOOOOO",
"OOOOOOOOOOOOOOOOOOOOOOOOOOOOOOOOOOOOOOOOOOOOOOOO",
"OOOOOOOOOOOOOOOOOOOOOOOOOOOOOOOOOOOOOOOOOOOOOOOO",
"OOOOOOOOOOO                          OOOOOOOOOOO",
"OOOOOOOOOOO                          OOOOOOOOOOO",
"OOOOOOOOOOO  XXXXXXXXXXXXXXoooooooo  OOOOOOOOOOO",
"OOOOOOOOOOO  XXXXXXXXXXXXXXoooooooo  OOOOOOOOOOO",
"OOOOOOOOOOO  XXXXXXXXXXXXXXoooooooo  OOOOOOOOOOO",
"OOOOOOOOOOO  XXXXXXXXXXXXXXXXXXXooo  OOOOOOOOOOO",
"OOOOOOOOOOO  XXXXXXXXXXXXXXXXXXXooo  OOOOOOOOOOO",
"OOOOOOOOOOO  XXXXXXXXXXXXXXXXXXXXXX  OOOOOOOOOOO",
"OOOOOOOOOOO  XXXXXXXXXXXXXXXXXXXXXX  OOOOOOOOOOO",
"OOOOOOOOOOO  XXXXXXXXXXXXXXXXXXXXXX  OOOOOOOOOOO",
"OOOOOOOOOOO  XXXXXXXXXXXXXXXXXXXXXX  OOOOOOOOOOO",
"OOOOOOOOOOO  XXXXXXXXXXXXXXXXXXXXXX  OOOOOOOOOOO",
"OOOOOOOOOOO  XXXXXXXXXXXXXXXXXXXXXX  OOOOOOOOOOO",
"OOOOOOOOOOO  XXX     XXXXXX     XXX  OOOOOOOOOOO",
"OOOOOOOOOOO  XXX     XXXXXX     XXX  OOOOOOOOOOO",
"OOOOOOOOOOO  XXX     XXXXXX     XXX  OOOOOOOOOOO",
"OOOOOOOO     XXX     XXXXXX     XXX     OOOOOOOO",
"OOOOOOOO     XXX     XXXXXX     XXX     OOOOOOOO",
"OOOOOOOO  oooXXXXXXXXXXXXXXXXXXXXXXooo  OOOOOOOO",
"OOOOOOOO  oooXXXXXXXXXXXXXXXXXXXXXXooo  OOOOOOOO",
"OOOOOOOO  oooXXXXXXXXXXXXXXXXXXXXXXooo  OOOOOOOO",
"OOOOOOOO  ooooooXXXXXXXXXXXXXXXXoooooo  OOOOOOOO",
"OOOOOOOO  ooooooXXXXXXXXXXXXXXXXoooooo  OOOOOOOO",
"OOOOOOOO  ooooooXXXXXXXXXXXXXXXXoooooo  OOOOOOOO",
"OOOOOOOO     XXXXXXXXXXXXXXXXXXXXXX     OOOOOOOO",
"OOOOOOOO     XXXXXXXXXXXXXXXXXXXXXX     OOOOOOOO",
"OOOOOOOOOOO  ......................  OOOOOOOOOOO",
"OOOOOOOOOOO  ......................  OOOOOOOOOOO",
"OOOOOOOOOOO  ......................  OOOOOOOOOOO",
"OOOOOOOOOOO  ......................  OOOOOOOOOOO",
"OOOOOOOOOOO  ......................  OOOOOOOOOOO",
"OOOOOOOOOOO  ......................  OOOOOOOOOOO",
"OOOOOOOOOOO  ......................  OOOOOOOOOOO",
"OOOOOOOOOOO  ......................  OOOOOOOOOOO",
"OOOOOOOOOOO  XXXXXX  OOOOOO  XXXXXX  OOOOOOOOOOO",
"OOOOOOOOOOO  XXXXXX  OOOOOO  XXXXXX  OOOOOOOOOOO",
"OOOOOOOOOOO  XXXXXX  OOOOOO  XXXXXX  OOOOOOOOOOO",
"OOOOOOOOOOO  XXXXXX  OOOOOO  XXXXXX  OOOOOOOOOOO",
"OOOOOOOOOOO  XXXXXX  OOOOOO          OOOOOOOOOOO",
"OOOOOOOOOOO  XXXXXX  OOOOOO          OOOOOOOOOOO",
"OOOOOOOOOOO          OOOOOOOOOOOOOOOOOOOOOOOOOOO",
"OOOOOOOOOOO          OOOOOOOOOOOOOOOOOOOOOOOOOOO"
};
