/* XPM */
static char *result[] = {
/* columns rows colors chars-per-pixel */
"48 48 6 1 ",
"  c #353540",
". c #735B42",
"X c #8B9150",
"o c #EEB551",
"O c #EDE4DA",
"+ c None",
/* pixels */
"++++++++++++++++++++++++++++++++++++++++++++++++",
"++++++++++++++++++++++++++++++++++++++++++++++++",
"++++++++++++++++++++++++++++++++++++++++++++++++",
"+++++++++++                          +++++++++++",
"+++++++++++                          +++++++++++",
"+++++++++++  OOOooo  oooooo  oooooo  +++++++++++",
"+++++++++++  OOOooo  oooooo  oooooo  +++++++++++",
"+++++++++++  OOOooo  oooooo  oooooo  +++++++++++",
"+++++++++++  oooooooooooooooooooooo  +++++++++++",
"+++++++++++  oooooooooooooooooooooo  +++++++++++",
"+++++++++++  oooooooooooooooooooooo  +++++++++++",
"+++++++++++  XXXXXXXXXXXXXXXXXXXOOO  +++++++++++",
"+++++++++++  XXXXXXXXXXXXXXXXXXXOOO  +++++++++++",
"+++++++++++  XXXXXXXXXXXXXXXXXXXXXX  +++++++++++",
"+++++++++++  XXXXXXXXXXXXXXXXXXXXXX  +++++++++++",
"+++++++++++  XXXXXXXXXXXXXXXXXXXXXX  +++++++++++",
"+++++++++++  XXXXXXXXXXXXXXXXXXXXXX     ++++++++",
"+++++++++++  XXXXXXXXXXXXXXXXXXXXXX     ++++++++",
"+++++++++++  XXXXXXXXXXXXXXXXXXXXXX     ++++++++",
"+++++++++++     XXXXXXXX     XXXXXXXX   ++++++++",
"+++++++++++     XXXXXXXX     XXXXXXXX   ++++++++",
"+++++++++++     XXXXXXXX     XXXXXXXX   ++++++++",
"+++++++++++     XXXXXXXX     XXXXXXXX   ++++++++",
"+++++++++++     XXXXXXXX     XXXXXXXX   ++++++++",
"+++++++++++  XXXXXXXXXXXXXXXXXXXXXX     ++++++++",
"+++++++++++  XXXXXXXXXXXXXXXXXXXXXX     ++++++++",
"+++++++++++  XXXXXXXXXXXXXXXXXXXXXX     ++++++++",
"+++++++++++  XXXXXXXXXXXXXXXXXXXXXX  +++++++++++",
"+++++++++++  XXXXXXXXXXXXXXXXXXXXXX  +++++++++++",
"+++++++++++  ......................  +++++++++++",
"+++++++++++  ......................  +++++++++++",
"+++++++++++  ......................  +++++++++++",
"+++++++++++  ......................  +++++++++++",
"+++++++++++  ......................  +++++++++++",
"+++++++++++  ......................  +++++++++++",
"+++++++++++  ......................     ++++++++",
"+++++++++++  ......................     ++++++++",
"+++++++++++  XXXXXX          XXXXXXXX   ++++++++",
"+++++++++++  XXXXXX          XXXXXXXX   ++++++++",
"+++++++++++  XXXXXX          XXXXXXXX   ++++++++",
"+++++++++++  XXX     ++++++             ++++++++",
"+++++++++++  XXX     ++++++             ++++++++",
"+++++++++++  XXX     ++++++             ++++++++",
"+++++++++++  XXX   +++++++++++++++++++++++++++++",
"+++++++++++  XXX   +++++++++++++++++++++++++++++",
"+++++++++++        +++++++++++++++++++++++++++++",
"+++++++++++        +++++++++++++++++++++++++++++",
"+++++++++++        +++++++++++++++++++++++++++++"
};
