/* XPM */
static char *_7f7493e4b094f4a970068887081ee7cDCmHz7rYi6MGlf8v[] = {
/* columns rows colors chars-per-pixel */
"32 32 6 1 ",
"  c None",
". c #34343C",
"X c #745C44",
"o c #ECB454",
"O c #D5C6B7",
"+ c #EEE5DB",
/* pixels */
"                                ",
"                                ",
"                                ",
"                                ",
"     ......................     ",
"     ......................     ",
"     ..++++++oooooooooooo..     ",
"     ..++++++oooooooooooo..     ",
"     ..++oooooooooooooooo..     ",
"     ..++oooooooooooooooo..     ",
"     ..ooooOOOOOOOOOOoooo..     ",
"     ..ooooOOOOOOOOOOoooo..     ",
"     ..ooOOOOOOOOOOOOOO....     ",
"     ..ooOOOOOOOOOOOOOO....     ",
"     ..ooOOOOOOOOOOOOOO..       ",
"     ..ooOOOOOOOOOOOOOO..       ",
"     ..OOOO....OOOOOO....       ",
"     ..OOOO....OOOOOO....       ",
"     ..OOOOOOOOOOOOOOOO..       ",
"     ..OOOOOOOOOOOOOOOO..       ",
"     ..OOOOOOOOOOOOOOOO..       ",
"     ..OOOOOOOOOOOOOOOO..       ",
"     ..OOOOOOOOOOOOOOOO..       ",
"     ..OOOOOOOOOOOOOOOO..       ",
"     ..XXXXXXXXXXOOXXXX..       ",
"     ..XXXXXXXXXXOOXXXX..       ",
"     ..XXXXXXXXXXXXXXXX..       ",
"     ..XXXXXXXXXXXXXXXX..       ",
"     ..XXXXXXXXXXXXXXXX..       ",
"     ..XXXXXXXXXXXXXXXX..       ",
"     ....................       ",
"     ....................       "
};
