/* XPM */
static char *f42192be9db34bb89d91f3a715949b8c55k16dpoldTMACvh[] = {
/* columns rows colors chars-per-pixel */
"32 32 6 1 ",
"  c None",
". c #34343C",
"X c #745C44",
"o c #ECB454",
"O c #D5C6B7",
"+ c #EEE5DB",
/* pixels */
"     ......................     ",
"     ......................     ",
"     ..++++++oooooooooooo..     ",
"     ..++++++oooooooooooo..     ",
"     ..++oooooooooooooooo..     ",
"     ..++oooooooooooooooo..     ",
"     ..ooooOOOOOOOOOOoooo..     ",
"     ..ooooOOOOOOOOOOoooo..     ",
"     ..ooOOOOOOOOOOOOOO....     ",
"     ..ooOOOOOOOOOOOOOO....     ",
"     ..ooOOOOOOOOOOOOOO..       ",
"     ..ooOOOOOOOOOOOOOO..       ",
"     ..OOOO....OOOOOO....       ",
"     ..OOOO....OOOOOO....       ",
"     ..OOOOOOOOOOOOOOOO..       ",
"     ..OOOOOOOOOOOOOOOO..       ",
"     ..OOOOOOOOOOOOOOOO..       ",
"     ..OOOOOOOOOOOOOOOO..       ",
"     ..OOOOOOOOOOOOOOOO..       ",
"     ..OOOOOOOOOOOOOOOO..       ",
"     ..XXXXXXXXXXOOXXXX..       ",
"     ..XXXXXXXXXXOOXXXX..       ",
"     ..XXXXXXXXXXXXXXXX..       ",
"     ..XXXXXXXXXXXXXXXX..       ",
"     ..XXXXXXXXXXXXXXXX..       ",
"     ..XXXXXXXXXXXXXXXX..       ",
"     ..XXXX........XXXX..       ",
"     ..XXXX........XXXX..       ",
"     ..XX....    ..XX....       ",
"     ..XX....    ..XX....       ",
"     ......      ......         ",
"     ......      ......         "
};
