/* XPM */
static char *b6b3ee42f9ff4950daf91656218ab7fbvBBD9Zg9F9A8ulan[] = {
/* columns rows colors chars-per-pixel */
"32 32 6 1 ",
"  c None",
". c #34343C",
"X c #745C44",
"o c #ECB454",
"O c #D5C6B7",
"+ c #EEE5DB",
/* pixels */
"                                ",
"                                ",
"                                ",
"                                ",
"                                ",
"                                ",
"                                ",
"                                ",
"                                ",
"                                ",
"                                ",
"                                ",
"                                ",
"                                ",
"          ......................",
"          ......................",
"          ..++++++oooooooooooo..",
"          ..++++++oooooooooooo..",
"      ......++oooooooooooooooo..",
"      ......++oooooooooooooooo..",
"    ....XX..ooooOOOOOOOOOOoooo..",
"    ....XX..ooooOOOOOOOOOOoooo..",
"  ....XXXX..ooOOOOOOOOOOOOOO....",
"  ....XXXX..ooOOOOOOOOOOOOOO....",
"....XXXXXX..ooOOOOOOOOOOOOOO..  ",
"....XXXXXX..ooOOOOOOOOOOOOOO..  ",
"..XXXXXXXX..OOOO....OOOOOO....  ",
"..XXXXXXXX..OOOO....OOOOOO....  ",
"..XXXXXXXX..OOOOOOOOOOOOOOOO..  ",
"..XXXXXXXX..OOOOOOOOOOOOOOOO..  ",
"..............................  ",
"..............................  "
};
