/* XPM */
static char *result[] = {
/* columns rows colors chars-per-pixel */
"48 48 5 1 ",
"  c #353540",
". c #EEB551",
"X c #7C6DA2",
"o c #EDE4DA",
"O c None",
/* pixels */
"OOOOOOOOOOOOOOOOOOOOOOOOOOOOOOOOOOOOOOOOOOOOOOOO",
"OOOOOOOOOOOOOOOOOOOOOOOOOOOOOOOOOOOOOOOOOOOOOOOO",
"OOOOOOOOOOOOOOOOOOOOOOOOOOOOOOOOOOOOOOOOOOOOOOOO",
"OOOOOOOO                                OOOOOOOO",
"OOOOOOOO                                OOOOOOOO",
"OOOOOOOO                                OOOOOOOO",
"OOOOOOOO  XXXXXXXXXXXXXXXXXooooooooXXX  OOOOOOOO",
"OOOOOOOO  XXXXXXXXXXXXXXXXXooooooooXXX  OOOOOOOO",
"OOOOOOOO  XXXXXXXXXXXXXXXXXXXXXXXXXXXX  OOOOOOOO",
"OOOOOOOO  XXXXXXXXXXXXXXXXXXXXXXXXXXXX  OOOOOOOO",
"OOOOOOOO  XXXXXXXXXXXXXXXXXXXXXXXXXXXX  OOOOOOOO",
"OOOOOOOO  XXXXXXXXX           XXXXXXXX  OOOOOOOO",
"OOOOOOOO  XXXXXXXXX           XXXXXXXX  OOOOOOOO",
"OOOOOOOO  XXXXXXXXX           XXXXXXXX  OOOOOOOO",
"OOOOOOOO  XXXXX                  XXXXX  OOOOOOOO",
"OOOOOOOO  XXXXX                  XXXXX  OOOOOOOO",
"OOOOOOOO  XXXXXoooooo      ooooooXXXXX  OOOOOOOO",
"OOOOOOOO  XXXXXoooooo      ooooooXXXXX  OOOOOOOO",
"OOOOOOOO  XXXXXoooooo      ooooooXXXXX  OOOOOOOO",
"OOOOOOOO  XXXXXoooooo      ooooooXXXXX  OOOOOOOO",
"OOOOOOOO  XXXXXoooooo      ooooooXXXXX  OOOOOOOO",
"OOOOOOOO  XXXXXoooooo      ooooooXXXXX  OOOOOOOO",
"OOOOOOOO  XXXXX                  XXXXX  OOOOOOOO",
"OOOOOOOO  XXXXX                  XXXXX  OOOOOOOO",
"OOOOOOOO  XXXXXXXX            XXXXXXXX  OOOOOOOO",
"OOOOOOOO  XXXXXXXX            XXXXXXXX  OOOOOOOO",
"OOOOOOOO  XXXXXXXX            XXXXXXXX  OOOOOOOO",
"OOOOOOOO  XXXXXXXXXXX      XXXXXXXXXXX  OOOOOOOO",
"OOOOOOOO  XXXXXXXXXXX      XXXXXXXXXXX  OOOOOOOO",
"OOOOOOOO  XXXXXXXXXXX      XXXXXXXXXXX  OOOOOOOO",
"OOOOOOOO     XXXXXXXX......XXXXXXXX     OOOOOOOO",
"OOOOOOOO     XXXXXXXX......XXXXXXXX     OOOOOOOO",
"OOOOOOOOOOO  XXXXXXXX      XXXXXXXX  OOOOOOOOOOO",
"OOOOOOOOOOO  XXXXXXXX      XXXXXXXX  OOOOOOOOOOO",
"OOOOOOOOOOO  XXXXXXXX      XXXXXXXX  OOOOOOOOOOO",
"OOOOOOOO     XXXXXXXX      XXXXXXXX     OOOOOOOO",
"OOOOOOOO     XXXXXXXX      XXXXXXXX     OOOOOOOO",
"OOOOOOOO     XXXXXXXX      XXXXXXXX     OOOOOOOO",
"OOOOO     XXXXXXXXXXX      XXXXXXXXXXX     OOOOO",
"OOOOO     XXXXXXXXXXX      XXXXXXXXXXX     OOOOO",
"OOOOO   XXXXXXXXXXXXX      XXXXXXXXXXXXX   OOOOO",
"OOOOO   XXXXXXXXXXXXX      XXXXXXXXXXXXX   OOOOO",
"OOOOO   XXXXXXXXXXXXX      XXXXXXXXXXXXX   OOOOO",
"OOOOO   XXXXXXXXXX            XXXXXXXXXX   OOOOO",
"OOOOO   XXXXXXXXXX            XXXXXXXXXX   OOOOO",
"OOOOO   XXXXXXXXXX            XXXXXXXXXX   OOOOO",
"OOOOO                                      OOOOO",
"OOOOO                                      OOOOO"
};
