/* XPM */
static char *result[] = {
/* columns rows colors chars-per-pixel */
"48 48 5 1 ",
"  c #353540",
". c #EEB551",
"X c #7C6DA2",
"o c #EDE4DA",
"O c None",
/* pixels */
"OOOOOOOOOOOOOOOOOOOOOOOOOOOOOOOOOOOOOOOOOOOOOOOO",
"OOOOOOOOOOOOOOOOOOOOOOOOOOOOOOOOOOOOOOOOOOOOOOOO",
"OOOOOOOOOOOOOOOOOOOOOOOOOOOOOOOOOOOOOOOOOOOOOOOO",
"OOOOOOOOOOOOOOOOOOOOOOOOOOOOOOOOOOOOOOOOOOOOOOOO",
"OOOOOOOOOOOOOOOOOOOOOOOOOOOOOOOOOOOOOOOOOOOOOOOO",
"OOOOOOOOOOOOOOOOOOOOOOOOOOOOOOOOOOOOOOOOOOOOOOOO",
"OOOOOOOOOOOOOOOOOOOOOOOOOOOOOOOOOOOOOOOOOOOOOOOO",
"OOOOOOOOOOOOOOOOOOOOOOOOOOOOOOOOOOOOOOOOOOOOOOOO",
"OOOOOOOOOOOOOOOOOOOOOOOOOOOOOOOOOOOOOOOOOOOOOOOO",
"OOOOOOOOOOOOOOOOOOOOOOOOOOOOOOOOOOOOOOOOOOOOOOOO",
"OOOOOOOOOOOOOOOOOOOOOOOOOOOOOOOOOOOOOOOOOOOOOOOO",
"OOOOOOOO                                OOOOOOOO",
"OOOOOOOO                                OOOOOOOO",
"OOOOOOOO                                OOOOOOOO",
"OOOOOOOO   XXXXXXXXXXXXXXXXooooooooXX   OOOOOOOO",
"OOOOOOOO   XXXXXXXXXXXXXXXXooooooooXX   OOOOOOOO",
"OOOOOOOO   XXXXXXXXXXXXXXXXXXXXXXXXXX   OOOOOOOO",
"OOOOOOOO   XXXXXXXXXXXXXXXXXXXXXXXXXX   OOOOOOOO",
"OOOOOOOO   XXXXXXXXXXXXXXXXXXXXXXXXXX   OOOOOOOO",
"OOOOOOOO   XXXXXXX            XXXXXXX   OOOOOOOO",
"OOOOOOOO   XXXXXXX            XXXXXXX   OOOOOOOO",
"OOOOOOOO   XXXXXXX            XXXXXXX   OOOOOOOO",
"OOOOOOOO   XXXXX                XXXXX   OOOOOOOO",
"OOOOOOOO   XXXXX                XXXXX   OOOOOOOO",
"OOOOOOOO   XXXXXooooo      oooooXXXXX   OOOOOOOO",
"OOOOOOOO   XXXXXooooo      oooooXXXXX   OOOOOOOO",
"OOOOOOOO   XXXXXooooo      oooooXXXXX   OOOOOOOO",
"OOOOOOOO   XXXXXooooo      oooooXXXXX   OOOOOOOO",
"OOOOOOOO   XXXXXooooo      oooooXXXXX   OOOOOOOO",
"OOOOOOOO   XXXXXooooo      oooooXXXXX   OOOOOOOO",
"OOOOOOOO   XXXXXXXX           XXXXXXX   OOOOOOOO",
"OOOOOOOO   XXXXXXXX           XXXXXXX   OOOOOOOO",
"OOOOO      XXXXXXXXXXX     XXXXXXXXXX      OOOOO",
"OOOOO      XXXXXXXXXXX     XXXXXXXXXX      OOOOO",
"OOOOO      XXXXXXXXXXX     XXXXXXXXXX      OOOOO",
"OOO     XXXXXXXXXXXXXX.....XXXXXXXXXXXXX     OOO",
"OOO     XXXXXXXXXXXXXX.....XXXXXXXXXXXXX     OOO",
"OOO     XXXXXXXXXXXXXX.....XXXXXXXXXXXXX     OOO",
"O    XXXXXXXXXXXXXXXXX     XXXXXXXXXXXXXXXX    O",
"O    XXXXXXXXXXXXXXXXX     XXXXXXXXXXXXXXXX    O",
"O  XXXXXXXXXXXXXXXXXXX     XXXXXXXXXXXXXXXXXX  O",
"O  XXXXXXXXXXXXXXXXXXX     XXXXXXXXXXXXXXXXXX  O",
"O  XXXXXXXXXXXXXXXXXXX     XXXXXXXXXXXXXXXXXX  O",
"O  XXXXXXXXXXXXXXXX           XXXXXXXXXXXXXXX  O",
"O  XXXXXXXXXXXXXXXX           XXXXXXXXXXXXXXX  O",
"O  XXXXXXXXXXXXXXXX           XXXXXXXXXXXXXXX  O",
"O                                              O",
"O                                              O"
};
