/* XPM */
static char *result[] = {
/* columns rows colors chars-per-pixel */
"48 48 6 1 ",
"  c #34343C",
". c #745C44",
"X c #ECB454",
"o c #D5C6B7",
"O c #EEE5DB",
"+ c None",
/* pixels */
"+++++++                                 ++++++++",
"+++++++                                 ++++++++",
"+++++++                                 ++++++++",
"+++++++   XXXXXXXXXXXXXXXXXXOOOOOOOOO   ++++++++",
"+++++++   XXXXXXXXXXXXXXXXXXOOOOOOOOO   ++++++++",
"+++++++   XXXXXXXXXXXXXXXXXXOOOOOOOOO   ++++++++",
"+++++++   XXXXXXXXXXXXXXXXXXXXXXXXOOO   ++++++++",
"+++++++   XXXXXXXXXXXXXXXXXXXXXXXXOOO   ++++++++",
"+++++++   XXXXXXXXXXXXXXXXXXXXXXXXOOO   ++++++++",
"+++++++   XXXXXXoooooooooooooooXXXXXX   ++++++++",
"+++++++   XXXXXXoooooooooooooooXXXXXX   ++++++++",
"+++++++   XXXXXXoooooooooooooooXXXXXX   ++++++++",
"+++++++      oooooooooooooooooooooXXX   ++++++++",
"+++++++      oooooooooooooooooooooXXX   ++++++++",
"+++++++      oooooooooooooooooooooXXX   ++++++++",
"++++++++++      ooooooooo      oooXXX   ++++++++",
"++++++++++      ooooooooo      oooXXX   ++++++++",
"++++++++++      ooooooooo      oooXXX   ++++++++",
"++++++++++      ooooooooo      oooooo   ++++++++",
"++++++++++      ooooooooo      oooooo   ++++++++",
"++++++++++      ooooooooo      oooooo   ++++++++",
"++++++++++   oooooooooooooooooooooooo   ++++++++",
"++++++++++   oooooooooooooooooooooooo   ++++++++",
"++++++++++   oooooooooooooooooooooooo   ++++++++",
"++++++++++   oooooooooooooooooooooooo   ++++++++",
"++++++++++   oooooooooooooooooooooooo   ++++++++",
"++++++++++   oooooooooooooooooooooooo   ++++++++",
"++++++++++   oooooooooooooooooooooooo   ++++++++",
"++++++++++   oooooooooooooooooooooooo   ++++++++",
"++++++++++   oooooooooooooooooooooooo   ++++++++",
"++++++++++   ......ooo...............   ++++++++",
"++++++++++   ......ooo...............   ++++++++",
"++++++++++   ......ooo...............   ++++++++",
"++++++++++   ........................   ++++++++",
"++++++++++   ........................   ++++++++",
"++++++++++   ........................   ++++++++",
"++++++++++   ........................      +++++",
"++++++++++   ........................      +++++",
"++++++++++   ........................      +++++",
"++++++++++   ......            .........   +++++",
"++++++++++   ......            .........   +++++",
"++++++++++   ......            .........   +++++",
"++++++++++   ...      ++++++               +++++",
"++++++++++   ...      ++++++               +++++",
"++++++++++   ...      ++++++               +++++",
"++++++++++         +++++++++++++++++++++++++++++",
"++++++++++         +++++++++++++++++++++++++++++",
"++++++++++         +++++++++++++++++++++++++++++"
};
