/* XPM */
static char *result[] = {
/* columns rows colors chars-per-pixel */
"48 48 5 1 ",
"  c #353540",
". c #735B42",
"X c #EEB551",
"o c #D2C1B1",
"O c None",
/* pixels */
"OOOOOOOOOOOOOOOOOOOOOOOOOOOOOOOOOOOOOOOOOOOOOOOO",
"OOOOOOOOOOOOOOOOOOOOOOOOOOOOOOOOOOOOOOOOOOOOOOOO",
"OOOOOOOOOOOOOOOOOOOOOOOOOOOOOOOOOOOOOOOOOOOOOOOO",
"OOOOOOOOOO                            OOOOOOOOOO",
"OOOOOOOOOO                            OOOOOOOOOO",
"OOOOOOOOOO                            OOOOOOOOOO",
"OOOOOOOOOO  XXXXXXXXXXXXXXXXXXXXXXXX  OOOOOOOOOO",
"OOOOOOOOOO  XXXXXXXXXXXXXXXXXXXXXXXX  OOOOOOOOOO",
"OOOOOOOOOO  XXXXXXXXXXXXXXXXXXXXXXXX  OOOOOOOOOO",
"OOOOOOOOOO  XXXXXXXXXXXXXXXXXXXXXXXX  OOOOOOOOOO",
"OOOOOOOOOO  XXXXXXXXXXXXXXXXXXXXXXXX  OOOOOOOOOO",
"OOOOOOOOOO  XXXXXXXXXXXXXXXXXXXXXXXX  OOOOOOOOOO",
"OOOOOOOOOO  XXXXXXXXXXXXXXXXXXXXXXXX  OOOOOOOOOO",
"OOOOOOOOOO  XXXXXXXXXXXXXXXXXXXXXXXX  OOOOOOOOOO",
"OOOOOOOOOO  XXXXXXXXXXXXXXXXXXXXXXXX  OOOOOOOOOO",
"OOOOOOOOOO  XXXXXXXXXXXXXXXXXXXXXXXX  OOOOOOOOOO",
"OOOOOOOOOO  XXXXXXXXXXXXXXXXXXXXXXXX  OOOOOOOOOO",
"OOOOOOOOOO  XXXXXXXXXXXXXXXXXXXXXXXX  OOOOOOOOOO",
"OOOOOOOOOO  XXXXXXXXXXXXXXXXXXXXXXXX  OOOOOOOOOO",
"OOOOOOOOOO   XXXXXXXXXXXXXXXXXXXXXX   OOOOOOOOOO",
"OOOOOOOOOO   XXXXXXXXXXXXXXXXXXXXXX   OOOOOOOOOO",
"OOOOOOOOOOO  oooXXXXXXXXXXXXXXXXooo  OOOOOOOOOOO",
"OOOOOOOOOOO  oooXXXXXXXXXXXXXXXXooo  OOOOOOOOOOO",
"OOOOOOOOOOO  oooooooooooooooooooooo  OOOOOOOOOOO",
"OOOOOOOOOOO  oooooooooooooooooooooo  OOOOOOOOOOO",
"OOOOOOOOOOO  oooooooooooooooooooooo  OOOOOOOOOOO",
"OOOOOOOOOOO  oooooooooooooooooooooo  OOOOOOOOOOO",
"OOOOOOOOOOO  oooooooooooooooooooooo  OOOOOOOOOOO",
"OOOOOOOOOOO  oooooooooooooooooooooo  OOOOOOOOOOO",
"OOOOOOOOOOO  oooooooooooooooooooooo  OOOOOOOOOOO",
"OOOOOOOOOOO  ......................  OOOOOOOOOOO",
"OOOOOOOOOOO  ......................  OOOOOOOOOOO",
"OOOOOOOOOOO  ......................  OOOOOOOOOOO",
"OOOOOOOOOOO  ......................  OOOOOOOOOOO",
"OOOOOOOOOOO  ......................  OOOOOOOOOOO",
"OOOOOOOOOOO  ......................  OOOOOOOOOOO",
"OOOOOOOOOOO  ......................  OOOOOOOOOOO",
"OOOOOOOOOOO  ......................  OOOOOOOOOOO",
"OOOOOOOOOOO  ......................  OOOOOOOOOOO",
"OOOOOOOOOOO  ......................  OOOOOOOOOOO",
"OOOOOOOOOOO  ......          ......  OOOOOOOOOOO",
"OOOOOOOOOOO  ......          ......  OOOOOOOOOOO",
"OOOOOOOOOOO  ......                  OOOOOOOOOOO",
"OOOOOOOOOOO  ......  OOOOOO          OOOOOOOOOOO",
"OOOOOOOOOOO  ......  OOOOOOOOOOOOOOOOOOOOOOOOOOO",
"OOOOOOOOOOO          OOOOOOOOOOOOOOOOOOOOOOOOOOO",
"OOOOOOOOOOO          OOOOOOOOOOOOOOOOOOOOOOOOOOO",
"OOOOOOOOOOO          OOOOOOOOOOOOOOOOOOOOOOOOOOO"
};
