/* XPM */
static char *result[] = {
/* columns rows colors chars-per-pixel */
"48 48 6 1 ",
"  c #34343C",
". c #745C44",
"X c #ECB454",
"o c #D5C6B7",
"O c #EEE5DB",
"+ c None",
/* pixels */
"++++++++++++++++++++++++++++++++++++++++++++++++",
"++++++++++++++++++++++++++++++++++++++++++++++++",
"++++++++++++++++++++++++++++++++++++++++++++++++",
"++++++++++++++++++++++++++++++++++++++++++++++++",
"++++++++++++++++++++++++++++++++++++++++++++++++",
"++++++++++++++++++++++++++++++++++++++++++++++++",
"++++++++++++++++++++++++++++++++++++++++++++++++",
"++++++++++++++++++++++++++++++++++++++++++++++++",
"++++++++++++++++++++++++++++++++++++++++++++++++",
"++++++++++++++++++++++++++++++++++++++++++++++++",
"++++++++++++++++++++++++++++++++++++++++++++++++",
"++++++++++++++++++++++++++++++++++++++++++++++++",
"++++++++++++++++++++++++++++++++++++++++++++++++",
"++++++++++++++++++++++++++++++++++++++++++++++++",
"++++++++++++++++++++++++++++++++++++++++++++++++",
"++++++++++++++++++++++++++++++++++++++++++++++++",
"++++++++++++++++++++++++++++++++++++++++++++++++",
"++++++++++++++++++++++++++++++++++++++++++++++++",
"++++++++++++++++++++++++++++++++++++++++++++++++",
"++++++++++++++++++++++++++++++++++++++++++++++++",
"++++++++++++++++++++++++++++++++++++++++++++++++",
"+++++++++++++++                                 ",
"+++++++++++++++                                 ",
"+++++++++++++++                                 ",
"+++++++++++++++   OOOOOOOOOXXXXXXXXXXXXXXXXXX   ",
"+++++++++++++++   OOOOOOOOOXXXXXXXXXXXXXXXXXX   ",
"+++++++++++++++   OOOOOOOOOXXXXXXXXXXXXXXXXXX   ",
"+++++++++         OOOXXXXXXXXXXXXXXXXXXXXXXXX   ",
"+++++++++         OOOXXXXXXXXXXXXXXXXXXXXXXXX   ",
"+++++++++         OOOXXXXXXXXXXXXXXXXXXXXXXXX   ",
"++++++      ...   XXXXXXoooooooooooooooXXXXXX   ",
"++++++      ...   XXXXXXoooooooooooooooXXXXXX   ",
"++++++      ...   XXXXXXoooooooooooooooXXXXXX   ",
"+++      ......   XXXooooooooooooooooooooo      ",
"+++      ......   XXXooooooooooooooooooooo      ",
"+++      ......   XXXooooooooooooooooooooo      ",
"      .........   XXXooooooooooooooooooooo   +++",
"      .........   XXXooooooooooooooooooooo   +++",
"      .........   XXXooooooooooooooooooooo   +++",
"   ............   oooooo      ooooooooo      +++",
"   ............   oooooo      ooooooooo      +++",
"   ............   oooooo      ooooooooo      +++",
"   ............   oooooooooooooooooooooooo   +++",
"   ............   oooooooooooooooooooooooo   +++",
"   ............   oooooooooooooooooooooooo   +++",
"                                             +++",
"                                             +++",
"                                             +++"
};
