/* XPM */
static char *result[] = {
/* columns rows colors chars-per-pixel */
"48 48 5 1 ",
"  c #353540",
". c #735B42",
"X c #557D55",
"o c #EDE4DA",
"O c None",
/* pixels */
"OOOOOOOOOOOOOOOOOOOOOOOOOOOOOOOOOOOOOOOOOOOOOOOO",
"OOOOOOOOOOOOOOOOOOOOOOOOOOOOOOOOOOOOOOOOOOOOOOOO",
"OOOOOOOOOOOOOOOOOOOOOOOOOOOOOOOOOOOOOOOOOOOOOOOO",
"OOOOOOOOOOOOOOOOOOOOOOOOOOOOOOOOOOOOOOOOOOOOOOOO",
"OOOOOOOOOOOOOOOOOOOOOOOOOOOOOOOOOOOOOOOOOOOOOOOO",
"OOOOOOOOOOOOOOOOOOOOOOOOOOOOOOOOOOOOOOOOOOOOOOOO",
"OOOOOOOOOOO                          OOOOOOOOOOO",
"OOOOOOOOOOO                          OOOOOOOOOOO",
"OOOOOOOOOOO  ooooooooXXXXXXXXXXXXXX  OOOOOOOOOOO",
"OOOOOOOOOOO  ooooooooXXXXXXXXXXXXXX  OOOOOOOOOOO",
"OOOOOOOOOOO  ooooooooXXXXXXXXXXXXXX  OOOOOOOOOOO",
"OOOOOOOOOOO  oooXXXXXXXXXXXXXXXXXXX  OOOOOOOOOOO",
"OOOOOOOOOOO  oooXXXXXXXXXXXXXXXXXXX  OOOOOOOOOOO",
"OOOOOOOOOOO  XXXXXXXXXXXXXXXXXXXXXX  OOOOOOOOOOO",
"OOOOOOOOOOO  XXXXXXXXXXXXXXXXXXXXXX  OOOOOOOOOOO",
"OOOOOOOOOOO  XXXXXXXXXXXXXXXXXXXXXX  OOOOOOOOOOO",
"OOOOOOOOOOO  XXXXXXXXXXXXXXXXXXXXXX  OOOOOOOOOOO",
"OOOOOOOOOOO  XXXXXXXXXXXXXXXXXXXXXX  OOOOOOOOOOO",
"OOOOOOOOOOO  XXXXXXXXXXXXXXXXXXXXXX  OOOOOOOOOOO",
"OOOOOOOOOOO  XXXXXXXXXXXXXXXXXXXXXX  OOOOOOOOOOO",
"OOOOOOOOOOO  XXXXXXXXXXXXXXXXXXXXXX  OOOOOOOOOOO",
"OOOOOOOOOOO  XXXXXXXXXXXXXXXXXXXXXX  OOOOOOOOOOO",
"OOOOOOOO     XXXXXXXXXXXXXXXXXXXXXX     OOOOOOOO",
"OOOOOOOO     XXXXXXXXXXXXXXXXXXXXXX     OOOOOOOO",
"OOOOOOOO  oooXXXXXXXXXXXXXXXXXXXXXXooo  OOOOOOOO",
"OOOOOOOO  oooXXXXXXXXXXXXXXXXXXXXXXooo  OOOOOOOO",
"OOOOOOOO  oooXXXXXXXXXXXXXXXXXXXXXXooo  OOOOOOOO",
"OOOOOOOO  oooXXXXXXXXXXXXXXXXXXXXXXooo  OOOOOOOO",
"OOOOOOOO  oooXXXXXXXXXXXXXXXXXXXXXXooo  OOOOOOOO",
"OOOOOOOO  oooXXXXXXXXXXXXXXXXXXXXXXooo  OOOOOOOO",
"OOOOOOOO     XXXXXXXXXXXXXXXXXXXXXX     OOOOOOOO",
"OOOOOOOO     XXXXXXXXXXXXXXXXXXXXXX     OOOOOOOO",
"OOOOOOOOOOO  ......................  OOOOOOOOOOO",
"OOOOOOOOOOO  ......................  OOOOOOOOOOO",
"OOOOOOOOOOO  ......................  OOOOOOOOOOO",
"OOOOOOOOOOO  ......................  OOOOOOOOOOO",
"OOOOOOOOOOO  ......................  OOOOOOOOOOO",
"OOOOOOOOOOO  ......................  OOOOOOOOOOO",
"OOOOOOOOOOO  ......................  OOOOOOOOOOO",
"OOOOOOOOOOO  ......................  OOOOOOOOOOO",
"OOOOOOOOOOO  XXXXXX  OOOOOO  XXXXXX  OOOOOOOOOOO",
"OOOOOOOOOOO  XXXXXX  OOOOOO  XXXXXX  OOOOOOOOOOO",
"OOOOOOOOOOO  XXXXXX  OOOOOO  XXXXXX  OOOOOOOOOOO",
"OOOOOOOOOOO  XXXXXX  OOOOOO  XXXXXX  OOOOOOOOOOO",
"OOOOOOOOOOO          OOOOOO  XXXXXX  OOOOOOOOOOO",
"OOOOOOOOOOO          OOOOOO  XXXXXX  OOOOOOOOOOO",
"OOOOOOOOOOOOOOOOOOOOOOOOOOO          OOOOOOOOOOO",
"OOOOOOOOOOOOOOOOOOOOOOOOOOO          OOOOOOOOOOO"
};
