/* XPM */
static char *result[] = {
/* columns rows colors chars-per-pixel */
"48 48 5 1 ",
"  c #353540",
". c #735B42",
"X c #557D55",
"o c #EDE4DA",
"O c None",
/* pixels */
"OOOOOOOOOOOOOOOOOOOOOOOOOOOOOOOOOOOOOOOOOOOOOOOO",
"OOOOOOOOOOOOOOOOOOOOOOOOOOOOOOOOOOOOOOOOOOOOOOOO",
"OOOOOOOOOOOOOOOOOOOOOOOOOOOOOOOOOOOOOOOOOOOOOOOO",
"OOOOOOOOOOOOOOOOOOOOOOOOOOOOOOOOOOOOOOOOOOOOOOOO",
"OOOOOOOOOOOOOOOOOOOOOOOOOOOOOOOOOOOOOOOOOOOOOOOO",
"OOOOOOOOOOO                          OOOOOOOOOOO",
"OOOOOOOOOOO                          OOOOOOOOOOO",
"OOOOOOOOOOO                          OOOOOOOOOOO",
"OOOOOOOOOOO  ooooooooXXXXXXXXXXXXXX  OOOOOOOOOOO",
"OOOOOOOOOOO  ooooooooXXXXXXXXXXXXXX  OOOOOOOOOOO",
"OOOOOOOOOOO  ooooooooXXXXXXXXXXXXXX  OOOOOOOOOOO",
"OOOOOOOOOOO  oooXXXXXXXXXXXXXXXXXXX  OOOOOOOOOOO",
"OOOOOOOOOOO  oooXXXXXXXXXXXXXXXXXXX  OOOOOOOOOOO",
"OOOOOOOOOOO  XXXXXXXXXXXXXXXXXXXXXX  OOOOOOOOOOO",
"OOOOOOOOOOO  XXXXXXXXXXXXXXXXXXXXXX  OOOOOOOOOOO",
"OOOOOOOOOOO  XXXXXXXXXXXXXXXXXXXXXX  OOOOOOOOOOO",
"OOOOOOOOOOO  XXXXXXXXXXXXXXXXXXXXXX  OOOOOOOOOOO",
"OOOOOOOOOOO  XXXXXXXXXXXXXXXXXXXXXX  OOOOOOOOOOO",
"OOOOOOOOOOO  XXXXXXXXXXXXXXXXXXXXXX  OOOOOOOOOOO",
"OOOOOOOOOOO  XXXXXX     XXXXXXXX     OOOOOOOOOOO",
"OOOOOOOOOOO  XXXXXX     XXXXXXXX     OOOOOOOOOOO",
"OOOOOOOOOOO  XXXXXX     XXXXXXXX        OOOOOOOO",
"OOOOOOOOOOO  XXXXXX     XXXXXXXX        OOOOOOOO",
"OOOOOOOOOOO  XXXXXX     XXXXXXXX        OOOOOOOO",
"OOOOOOOOOOO  XXXoooXXXXXXXXXXXXXXXXoo   OOOOOOOO",
"OOOOOOOOOOO  XXXoooXXXXXXXXXXXXXXXXoo   OOOOOOOO",
"OOOOOOOOOOO  XXXoooXXXXXXXXXXXXXXXXoo   OOOOOOOO",
"OOOOOOOOOOO  XXXoooooXXXXXXXXXXXooooo   OOOOOOOO",
"OOOOOOOOOOO  XXXoooooXXXXXXXXXXXooooo   OOOOOOOO",
"OOOOOOOOOOO  XXXXXXXXXXXXXXXXXXXXXX     OOOOOOOO",
"OOOOOOOOOOO  XXXXXXXXXXXXXXXXXXXXXX     OOOOOOOO",
"OOOOOOOOOOO  XXXXXXXXXXXXXXXXXXXXXX     OOOOOOOO",
"OOOOOOOOOOO  ......................  OOOOOOOOOOO",
"OOOOOOOOOOO  ......................  OOOOOOOOOOO",
"OOOOOOOOOOO  ......................  OOOOOOOOOOO",
"OOOOOOOOOOO  ......................  OOOOOOOOOOO",
"OOOOOOOOOOO  ......................  OOOOOOOOOOO",
"OOOOOOOOOOO  ......................  OOOOOOOOOOO",
"OOOOOOOOOOO  ......................  OOOOOOOOOOO",
"OOOOOOOOOOO  ......................  OOOOOOOOOOO",
"OOOOOOOOOOO  XXXXXX          XXXXXX  OOOOOOOOOOO",
"OOOOOOOOOOO  XXXXXX          XXXXXX  OOOOOOOOOOO",
"OOOOOOOOOOO  XXXXXX          XXXXXX  OOOOOOOOOOO",
"OOOOOOOOOOO  XXX     OOOOOO  XXX     OOOOOOOOOOO",
"OOOOOOOOOOO  XXX     OOOOOO  XXX     OOOOOOOOOOO",
"OOOOOOOOOOO        OOOOOOOO        OOOOOOOOOOOOO",
"OOOOOOOOOOO        OOOOOOOO        OOOOOOOOOOOOO",
"OOOOOOOOOOO        OOOOOOOO        OOOOOOOOOOOOO"
};
