/* XPM */
static char *result[] = {
/* columns rows colors chars-per-pixel */
"48 48 5 1 ",
"  c #353540",
". c #735B42",
"X c #557D55",
"o c #EDE4DA",
"O c None",
/* pixels */
"OOOOOOOOOOO                          OOOOOOOOOOO",
"OOOOOOOOOOO                          OOOOOOOOOOO",
"OOOOOOOOOOO                          OOOOOOOOOOO",
"OOOOOOOOOOO  ooooooooXXXXXXXXXXXXXX  OOOOOOOOOOO",
"OOOOOOOOOOO  ooooooooXXXXXXXXXXXXXX  OOOOOOOOOOO",
"OOOOOOOOOOO  oooXXXXXXXXXXXXXXXXXXX  OOOOOOOOOOO",
"OOOOOOOOOOO  oooXXXXXXXXXXXXXXXXXXX  OOOOOOOOOOO",
"OOOOOOOOOOO  oooXXXXXXXXXXXXXXXXXXX  OOOOOOOOOOO",
"OOOOOOOOOOO  XXXXXXXXXXXXXXXXXXXXXX  OOOOOOOOOOO",
"OOOOOOOOOOO  XXXXXXXXXXXXXXXXXXXXXX  OOOOOOOOOOO",
"OOOOOOOOOOO  XXXXXXXXXXXXXXXXXXXXXX  OOOOOOOOOOO",
"OOOOOOOOOOO  XXXXXXXXXXXXXXXXXXXXXX  OOOOOOOOOOO",
"OOOOOOOOOOO  XXXXXXXXXXXXXXXXXXXXXX  OOOOOOOOOOO",
"OOOOOOOOOOO  XXXXXX     XXXXXXXX     OOOOOOOOOOO",
"OOOOOOOOOOO  XXXXXX     XXXXXXXX     OOOOOOOOOOO",
"OOOOOOOOOOO  XXXXXX     XXXXXXXX     OOOOOOOOOOO",
"OOOOOOOOOOO  XXXXXX     XXXXXXXX        OOOOOOOO",
"OOOOOOOOOOO  XXXXXX     XXXXXXXX        OOOOOOOO",
"OOOOOOOOOOO  XXXXXX     XXXXXXXX        OOOOOOOO",
"OOOOOOOOOOO  XXXoooXXXXXXXXXXXXXXXXoo   OOOOOOOO",
"OOOOOOOOOOO  XXXoooXXXXXXXXXXXXXXXXoo   OOOOOOOO",
"OOOOOOOOOOO  XXXoooooXXXXXXXXXXXooooo   OOOOOOOO",
"OOOOOOOOOOO  XXXoooooXXXXXXXXXXXooooo   OOOOOOOO",
"OOOOOOOOOOO  XXXoooooXXXXXXXXXXXooooo   OOOOOOOO",
"OOOOOOOOOOO  XXXXXXXXXXXXXXXXXXXXXX     OOOOOOOO",
"OOOOOOOOOOO  XXXXXXXXXXXXXXXXXXXXXX     OOOOOOOO",
"OOOOOOOOOOO  XXXXXXXXXXXXXXXXXXXXXX     OOOOOOOO",
"OOOOOOOOOOO  ......................  OOOOOOOOOOO",
"OOOOOOOOOOO  ......................  OOOOOOOOOOO",
"OOOOOOOOOOO  ......................  OOOOOOOOOOO",
"OOOOOOOOOOO  ......................  OOOOOOOOOOO",
"OOOOOOOOOOO  ......................  OOOOOOOOOOO",
"OOOOOOOO     ......................     OOOOOOOO",
"OOOOOOOO     ......................     OOOOOOOO",
"OOOOOOOO     ......................     OOOOOOOO",
"OOOOOOOO   XXXXXXXX          XXXXXXXX   OOOOOOOO",
"OOOOOOOO   XXXXXXXX          XXXXXXXX   OOOOOOOO",
"OOOOOOOO   XX        OOOOOO             OOOOOOOO",
"OOOOOOOO   XX        OOOOOO             OOOOOOOO",
"OOOOOOOO   XX        OOOOOO             OOOOOOOO",
"OOOOOOOO        OOOOOOOOOOOOOOOOOOOOOOOOOOOOOOOO",
"OOOOOOOO        OOOOOOOOOOOOOOOOOOOOOOOOOOOOOOOO",
"OOOOOOOO        OOOOOOOOOOOOOOOOOOOOOOOOOOOOOOOO",
"OOOOOOOOOOOOOOOOOOOOOOOOOOOOOOOOOOOOOOOOOOOOOOOO",
"OOOOOOOOOOOOOOOOOOOOOOOOOOOOOOOOOOOOOOOOOOOOOOOO",
"OOOOOOOOOOOOOOOOOOOOOOOOOOOOOOOOOOOOOOOOOOOOOOOO",
"OOOOOOOOOOOOOOOOOOOOOOOOOOOOOOOOOOOOOOOOOOOOOOOO",
"OOOOOOOOOOOOOOOOOOOOOOOOOOOOOOOOOOOOOOOOOOOOOOOO"
};
