/* XPM */
static char *result[] = {
/* columns rows colors chars-per-pixel */
"48 48 5 1 ",
"  c #353540",
". c #735B42",
"X c #557D55",
"o c #EDE4DA",
"O c None",
/* pixels */
"OOOOOOOOOOO                          OOOOOOOOOOO",
"OOOOOOOOOOO                          OOOOOOOOOOO",
"OOOOOOOOOOO                          OOOOOOOOOOO",
"OOOOOOOOOOO  XXXXXXXXXXXXXXoooooooo  OOOOOOOOOOO",
"OOOOOOOOOOO  XXXXXXXXXXXXXXoooooooo  OOOOOOOOOOO",
"OOOOOOOOOOO  XXXXXXXXXXXXXXXXXXXooo  OOOOOOOOOOO",
"OOOOOOOOOOO  XXXXXXXXXXXXXXXXXXXooo  OOOOOOOOOOO",
"OOOOOOOOOOO  XXXXXXXXXXXXXXXXXXXooo  OOOOOOOOOOO",
"OOOOOOOOOOO  XXXXXXXXXXXXXXXXXXXXXX  OOOOOOOOOOO",
"OOOOOOOOOOO  XXXXXXXXXXXXXXXXXXXXXX  OOOOOOOOOOO",
"OOOOOOOOOOO  XXXXXXXXXXXXXXXXXXXXXX  OOOOOOOOOOO",
"OOOOOOOOOOO  XXXXXXXXXXXXXXXXXXXXXX  OOOOOOOOOOO",
"OOOOOOOOOOO  XXXXXXXXXXXXXXXXXXXXXX  OOOOOOOOOOO",
"OOOOOOOOOOO     XXXXXXXX     XXXXXX  OOOOOOOOOOO",
"OOOOOOOOOOO     XXXXXXXX     XXXXXX  OOOOOOOOOOO",
"OOOOOOOOOOO     XXXXXXXX     XXXXXX  OOOOOOOOOOO",
"OOOOOOOO        XXXXXXXX     XXXXXX  OOOOOOOOOOO",
"OOOOOOOO        XXXXXXXX     XXXXXX  OOOOOOOOOOO",
"OOOOOOOO        XXXXXXXX     XXXXXX  OOOOOOOOOOO",
"OOOOOOOO   ooXXXXXXXXXXXXXXXXoooXXX  OOOOOOOOOOO",
"OOOOOOOO   ooXXXXXXXXXXXXXXXXoooXXX  OOOOOOOOOOO",
"OOOOOOOO   oooooXXXXXXXXXXXoooooXXX  OOOOOOOOOOO",
"OOOOOOOO   oooooXXXXXXXXXXXoooooXXX  OOOOOOOOOOO",
"OOOOOOOO   oooooXXXXXXXXXXXoooooXXX  OOOOOOOOOOO",
"OOOOOOOO     XXXXXXXXXXXXXXXXXXXXXX  OOOOOOOOOOO",
"OOOOOOOO     XXXXXXXXXXXXXXXXXXXXXX  OOOOOOOOOOO",
"OOOOOOOO     XXXXXXXXXXXXXXXXXXXXXX  OOOOOOOOOOO",
"OOOOOOOOOOO  ......................  OOOOOOOOOOO",
"OOOOOOOOOOO  ......................  OOOOOOOOOOO",
"OOOOOOOOOOO  ......................  OOOOOOOOOOO",
"OOOOOOOOOOO  ......................  OOOOOOOOOOO",
"OOOOOOOOOOO  ......................  OOOOOOOOOOO",
"OOOOOOOO     ......................     OOOOOOOO",
"OOOOOOOO     ......................     OOOOOOOO",
"OOOOOOOO     ......................     OOOOOOOO",
"OOOOOOOO   XXXXXXXX          XXXXXXXX   OOOOOOOO",
"OOOOOOOO   XXXXXXXX          XXXXXXXX   OOOOOOOO",
"OOOOOOOO             OOOOOO        XX   OOOOOOOO",
"OOOOOOOO             OOOOOO        XX   OOOOOOOO",
"OOOOOOOO             OOOOOO        XX   OOOOOOOO",
"OOOOOOOOOOOOOOOOOOOOOOOOOOOOOOOO        OOOOOOOO",
"OOOOOOOOOOOOOOOOOOOOOOOOOOOOOOOO        OOOOOOOO",
"OOOOOOOOOOOOOOOOOOOOOOOOOOOOOOOO        OOOOOOOO",
"OOOOOOOOOOOOOOOOOOOOOOOOOOOOOOOOOOOOOOOOOOOOOOOO",
"OOOOOOOOOOOOOOOOOOOOOOOOOOOOOOOOOOOOOOOOOOOOOOOO",
"OOOOOOOOOOOOOOOOOOOOOOOOOOOOOOOOOOOOOOOOOOOOOOOO",
"OOOOOOOOOOOOOOOOOOOOOOOOOOOOOOOOOOOOOOOOOOOOOOOO",
"OOOOOOOOOOOOOOOOOOOOOOOOOOOOOOOOOOOOOOOOOOOOOOOO"
};
