/* XPM */
static char *result[] = {
/* columns rows colors chars-per-pixel */
"48 48 5 1 ",
"  c #353540",
". c #735B42",
"X c #557D55",
"o c #EDE4DA",
"O c None",
/* pixels */
"OOOOOOOOOOOOOOOOOOOOOOOOOOOOOOOOOOOOOOOOOOOOOOOO",
"OOOOOOOOOOOOOOOOOOOOOOOOOOOOOOOOOOOOOOOOOOOOOOOO",
"OOOOOOOOOOOOOOOOOOOOOOOOOOOOOOOOOOOOOOOOOOOOOOOO",
"OOOOOOOOOOOOOOOOOOOOOOOOOOOOOOOOOOOOOOOOOOOOOOOO",
"OOOOOOOOOOOOOOOOOOOOOOOOOOOOOOOOOOOOOOOOOOOOOOOO",
"OOOOOOOOOOO                          OOOOOOOOOOO",
"OOOOOOOOOOO                          OOOOOOOOOOO",
"OOOOOOOOOOO                          OOOOOOOOOOO",
"OOOOOOOOOOO  XXXXXXXXXXXXXXoooooooo  OOOOOOOOOOO",
"OOOOOOOOOOO  XXXXXXXXXXXXXXoooooooo  OOOOOOOOOOO",
"OOOOOOOOOOO  XXXXXXXXXXXXXXoooooooo  OOOOOOOOOOO",
"OOOOOOOOOOO  XXXXXXXXXXXXXXXXXXXooo  OOOOOOOOOOO",
"OOOOOOOOOOO  XXXXXXXXXXXXXXXXXXXooo  OOOOOOOOOOO",
"OOOOOOOOOOO  XXXXXXXXXXXXXXXXXXXXXX  OOOOOOOOOOO",
"OOOOOOOOOOO  XXXXXXXXXXXXXXXXXXXXXX  OOOOOOOOOOO",
"OOOOOOOOOOO  XXXXXXXXXXXXXXXXXXXXXX  OOOOOOOOOOO",
"OOOOOOOOOOO  XXXXXXXXXXXXXXXXXXXXXX  OOOOOOOOOOO",
"OOOOOOOOOOO  XXXXXXXXXXXXXXXXXXXXXX  OOOOOOOOOOO",
"OOOOOOOOOOO  XXXXXXXXXXXXXXXXXXXXXX  OOOOOOOOOOO",
"OOOOOOOOOOO     XXXXXXXX     XXXXXX  OOOOOOOOOOO",
"OOOOOOOOOOO     XXXXXXXX     XXXXXX  OOOOOOOOOOO",
"OOOOOOOO        XXXXXXXX     XXXXXX  OOOOOOOOOOO",
"OOOOOOOO        XXXXXXXX     XXXXXX  OOOOOOOOOOO",
"OOOOOOOO        XXXXXXXX     XXXXXX  OOOOOOOOOOO",
"OOOOOOOO   ooXXXXXXXXXXXXXXXXoooXXX  OOOOOOOOOOO",
"OOOOOOOO   ooXXXXXXXXXXXXXXXXoooXXX  OOOOOOOOOOO",
"OOOOOOOO   ooXXXXXXXXXXXXXXXXoooXXX  OOOOOOOOOOO",
"OOOOOOOO   oooooXXXXXXXXXXXoooooXXX  OOOOOOOOOOO",
"OOOOOOOO   oooooXXXXXXXXXXXoooooXXX  OOOOOOOOOOO",
"OOOOOOOO     XXXXXXXXXXXXXXXXXXXXXX  OOOOOOOOOOO",
"OOOOOOOO     XXXXXXXXXXXXXXXXXXXXXX  OOOOOOOOOOO",
"OOOOOOOO     XXXXXXXXXXXXXXXXXXXXXX  OOOOOOOOOOO",
"OOOOOOOOOOO  ......................  OOOOOOOOOOO",
"OOOOOOOOOOO  ......................  OOOOOOOOOOO",
"OOOOOOOOOOO  ......................  OOOOOOOOOOO",
"OOOOOOOOOOO  ......................  OOOOOOOOOOO",
"OOOOOOOOOOO  ......................  OOOOOOOOOOO",
"OOOOOOOOOOO  ......................  OOOOOOOOOOO",
"OOOOOOOOOOO  ......................  OOOOOOOOOOO",
"OOOOOOOOOOO  ......................  OOOOOOOOOOO",
"OOOOOOOOOOO          XXXXXX          OOOOOOOOOOO",
"OOOOOOOOOOO          XXXXXX          OOOOOOOOOOO",
"OOOOOOOOOOO          XXXXXX          OOOOOOOOOOO",
"OOOOOOOOOOOOOOOOOOO     XXX  OOOOOOOOOOOOOOOOOOO",
"OOOOOOOOOOOOOOOOOOO     XXX  OOOOOOOOOOOOOOOOOOO",
"OOOOOOOOOOOOOOOOOOOOO        OOOOOOOOOOOOOOOOOOO",
"OOOOOOOOOOOOOOOOOOOOO        OOOOOOOOOOOOOOOOOOO",
"OOOOOOOOOOOOOOOOOOOOO        OOOOOOOOOOOOOOOOOOO"
};
