/* XPM */
static char *result[] = {
/* columns rows colors chars-per-pixel */
"48 48 3 1 ",
"  c #472D3C",
". c #BE7857",
"X c #BF7958",
/* pixels */
"                                                ",
"                                                ",
"                                                ",
"      XXXXXXXXXXXXXXXXXXXXXXXXXXXXXXXXXXXX      ",
"      XXXXXXXXXXXXXXXXXXXXXXXXXXXXXXXXXXXX      ",
"      XXXXXXXXXXXXXXXXXXXXXXXXXXXXXXXXXXXX      ",
"   XXXXXXXXXXXXXXXXXXXXXXXXXXXXXXXXXXXXXXXXXX   ",
"   XXXXXXXXXXXXXXXXXXXXXXXXXXXXXXXXXXXXXXXXXX   ",
"   XXXXXXXXXXXXXXXXXXXXXXXXXXXXXXXXXXXXXXXXXX   ",
"   XXXXXX                              XXXXXX   ",
"   XXXXXX                              XXXXXX   ",
"   XXXXXX                              XXXXXX   ",
"   XXXXXX   XXXXXXXXXXXXXXXXXXXXXXXX   XXXXXX   ",
"   XXXXXX   XXXXXXXXXXXXXXXXXXXXXXXX   XXXXXX   ",
"   XXXXXX   XXXXXXXXXXXXXXXXXXXXXXXX   XXXXXX   ",
"   XXXXXX   XXX                  XXX   XXXXXX   ",
"   XXXXXX   XXX                  XXX   XXXXXX   ",
"   XXXXXX   XXX                  XXX   XXXXXX   ",
"   XXXXXX   XXX                  XXX   XXXXXX   ",
"   XXXXXX   XXX                  XXX   XXXXXX   ",
"   XXXXXX   XXX                  XXX   XXXXXX   ",
"   XXXXXX   XXX                  XXX   XXXXXX   ",
"   XXXXXX   XXX                  XXX   XXXXXX   ",
"   XXXXXX   XXX                  XXX   XXXXXX   ",
"   XXXXXX   XXX                  XXX   XXXXXX   ",
"   XXXXXX   XXX                  XXX   XXXXXX   ",
"   XXXXXX   XXX                  XXX   XXXXXX   ",
"   XXXXXX   XXXXXXXXXXXXXXXXXXXXXXXX   XXXXXX   ",
"   XXXXXX   XXXXXXXXXXXXXXXXXXXXXXXX   XXXXXX   ",
"   XXXXXX   XXXXXXXXXXXXXXXXXXXXXXXX   XXXXXX   ",
"   XXXXXX   XXXXXXXXXXXXXXXXXX   XXX   XXXXXX   ",
"   XXXXXX   XXXXXXXXXXXXXXXXXX   XXX   XXXXXX   ",
"   XXXXXX   XXXXXXXXXXXXXXXXXX   XXX   XXXXXX   ",
"   XXXXXX   XXXXXXXXXXXXXXXXXX   XXX   XXXXXX   ",
"   XXXXXX   XXXXXXXXXXXXXXXXXX   XXX   XXXXXX   ",
"   XXXXXX   XXXXXXXXXXXXXXXXXX   XXX   XXXXXX   ",
"   XXXXXX   XXXXXXXXXXXXXXXXXXXXXXXX   XXXXXX   ",
"   XXXXXX   XXXXXXXXXXXXXXXXXXXXXXXX   XXXXXX   ",
"   XXXXXX   XXXXXXXXXXXXXXXXXXXXXXXX   XXXXXX   ",
"   XXXXXX   XXXXXXXXXXXXXXXXXXXXXXXX   XXXXXX   ",
"   XXXXXX   XXXXXXXXXXXXXXXXXXXXXXXX   XXXXXX   ",
"   XXXXXX   XXXXXXXXXXXXXXXXXXXXXXXX   XXXXXX   ",
"   XXXXXX   XXXXXXXXXXXXXXXXXXXXXXXX   XXXXXX   ",
"   XXXXXX   XXXXXXXXXXXXXXXXXXXXXX..   XXXXXX   ",
"   XXXXXX   XXXXXXXXXXXXXXXXXXXXXX..   XXXXXX   ",
"                                                ",
"                                                ",
"                                                "
};
