/* XPM */
static char *result[] = {
/* columns rows colors chars-per-pixel */
"48 48 4 1 ",
"  c #472D3C",
". c #4A2F3B",
"X c #482E3C",
"o c #F4B41B",
/* pixels */
"                                                ",
"                                                ",
"                                                ",
"                                                ",
"                                                ",
"                                                ",
"                                                ",
"                                                ",
"                                                ",
"                                                ",
"                                                ",
"                                                ",
"                                                ",
"                                                ",
"                                                ",
"                  oooooooooooo                  ",
"                  oooooooooooo                  ",
"                  oooooooooooo                  ",
"               ooo         oooooo               ",
"               ooo         oooooo               ",
"               ooo         oooooo               ",
"               ooo   ooo   oooooo               ",
"               ooo   ooo   oooooo               ",
"               ooo   ooo   oooooo               ",
"               ooo   ooo   oooooo               ",
"               ooo   ooo   oooooo               ",
"               ooo   ooo   oooooo               ",
"               ooo         oooooo               ",
"               ooo         oooooo               ",
"               ooo         oooooo               ",
"                  oooooooooooo                  ",
"                  oooooooooooo                  ",
"                  oooooooooooo                  ",
"                                                ",
"                                                ",
"                                                ",
"                                                ",
"                     X                          ",
"                     X                          ",
"                                                ",
"                      ..                        ",
"                      ..                        ",
"                     XXX                        ",
"                     X                          ",
"                     X                          ",
"                                                ",
"                      XX                        ",
"                      XX                        "
};
