/* XPM */
static char *result[] = {
/* columns rows colors chars-per-pixel */
"256 64 6 1 ",
"  c black",
". c #353540",
"X c #EEB551",
"o c #7C6DA2",
"O c #CFC6B8",
"+ c #EDE4DA",
/* pixels */
"                                                                                                                                                                                                                                                                ",
"                                                                                                                                                                                                                                                                ",
"                                                                                                                                                                                                                                                                ",
"                                                                                                                                                                                                                                                                ",
"                                                                                                                                                                                                                                                                ",
"                                                                                                                                                                                                                                                                ",
"                                                                                                                                                                                                                                                                ",
"                                                                                                                                                                                                                                                                ",
"                                                                                                                                                                                                                                                                ",
"                                                                                                                                                                                                                                                                ",
"                                                                                                                                                                                                                                                                ",
"                                                                                                                                                                                                                                                                ",
"                                                                                                                                                                                                                                                                ",
"                                                                                                                                                                                                                                                                ",
"                                                                                                                                                                                                                                  ........................      ",
"                                                                                                                                                                                                                                  ........................      ",
"                                                                                                                                                                                                                                  ..++++++oooooooooooooo..      ",
"                                                                                                                                                                                                                                  ..++++++oooooooooooooo..      ",
"                                                                                                                                                                                                                                  ..++oooooooooooooooooo..      ",
"                                                                                                                                                                                                                                  ..++oooooooooooooooooo..      ",
"                                                                                                                                                                                                                                  ..oooooooo........oooo..      ",
"                                                                                                                                                                                                                                  ..oooooooo........oooo..      ",
"          OOOOOOOOOOOO                    OOOOOOOOOOOO                                                  OOOO                              OOOOOOOOOOOO                  OOOOOOOOOOOOOO                    OOOOOOOOOOOO            ..oooooo............oo..      ",
"          OOOOOOOOOOOO                    OOOOOOOOOOOO                                                  OOOO                              OOOOOOOOOOOO                  OOOOOOOOOOOOOO                    OOOOOOOOOOOO            ..oooooo............oo..      ",
"        OOOOOOOOOOOOOOOO                OOOOOOOOOOOOOOOO                                                OOOO                            OOOOOOOOOOOOOOOO                OOOOOOOOOOOOOOOO                OOOOOOOOOOOOOOOO          ..oooooo++++......++oo..      ",
"        OOOOOOOOOOOOOOOO                OOOOOOOOOOOOOOOO                                                OOOO                            OOOOOOOOOOOOOOOO                OOOOOOOOOOOOOOOO                OOOOOOOOOOOOOOOO          ..oooooo++++......++oo..      ",
"        OOOO        OOOO                OOOO        OOOO                                                OOOO                            OOOO        OOOO                OOOO        OOOO                OOOO        OOOO          ..oooooo++++......++oo..      ",
"        OOOO        OOOO                OOOO        OOOO                                                OOOO                            OOOO        OOOO                OOOO        OOOO                OOOO        OOOO          ..oooooo++++......++oo..      ",
"        OOOO                            OOOO        OOOO                                                OOOO                            OOOO        OOOO                OOOO        OOOO                OOOO                      ..oooooo............oo..      ",
"        OOOO                            OOOO        OOOO                                                OOOO                            OOOO        OOOO                OOOO        OOOO                OOOO                      ..oooooo............oo..      ",
"        OOOOOOOOOOOOOO                  OOOO        OOOO                                                OOOO                            OOOO        OOOO                OOOO        OOOO                OOOO    OOOOOOOO          ..oooooooo........oooo..      ",
"        OOOOOOOOOOOOOO                  OOOO        OOOO                                                OOOO                            OOOO        OOOO                OOOO        OOOO                OOOO    OOOOOOOO          ..oooooooo........oooo..      ",
"          OOOOOOOOOOOOOO                OOOO        OOOO                                                OOOO                            OOOO        OOOO                OOOO        OOOO                OOOO    OOOOOOOO          ..oooooooooo....oooooo..      ",
"          OOOOOOOOOOOOOO                OOOO        OOOO                                                OOOO                            OOOO        OOOO                OOOO        OOOO                OOOO    OOOOOOOO          ..oooooooooo....oooooo..      ",
"                    OOOO                OOOO        OOOO                                                OOOO                            OOOO        OOOO                OOOO        OOOO                OOOO        OOOO          ....ooooooooXXXXoooo....      ",
"                    OOOO                OOOO        OOOO                                                OOOO                            OOOO        OOOO                OOOO        OOOO                OOOO        OOOO          ....ooooooooXXXXoooo....      ",
"        OOOO        OOOO                OOOO        OOOO                                                OOOO                            OOOO        OOOO                OOOO        OOOO                OOOO        OOOO            ..oooooooo....oooo..        ",
"        OOOO        OOOO                OOOO        OOOO                                                OOOO                            OOOO        OOOO                OOOO        OOOO                OOOO        OOOO            ..oooooooo....oooo..        ",
"        OOOOOOOOOOOOOOOO                OOOOOOOOOOOOOOOO              OOOOOOOOOOOOOOOOOOOO              OOOOOOOOOOOOOOOO                OOOOOOOOOOOOOOOO                OOOO        OOOO                OOOOOOOOOOOOOOOO          ....oooooooo....oooo..        ",
"        OOOOOOOOOOOOOOOO                OOOOOOOOOOOOOOOO              OOOOOOOOOOOOOOOOOOOO              OOOOOOOOOOOOOOOO                OOOOOOOOOOOOOOOO                OOOO        OOOO                OOOOOOOOOOOOOOOO          ....oooooooo....oooo..        ",
"          OOOOOOOOOOOO                    OOOOOOOOOOOO                OOOOOOOOOOOOOOOOOOOO              OOOOOOOOOOOOOOOO                  OOOOOOOOOOOO                  OOOO        OOOO                  OOOOOOOOOOOO          ....oooooooooo....oooo..        ",
"          OOOOOOOOOOOO                    OOOOOOOOOOOO                OOOOOOOOOOOOOOOOOOOO              OOOOOOOOOOOOOOOO                  OOOOOOOOOOOO                  OOOO        OOOO                  OOOOOOOOOOOO          ....oooooooooo....oooo..        ",
"                                                                                                                                                                                                                                ..oooooooooooo....oooo..        ",
"                                                                                                                                                                                                                                ..oooooooooooo....oooo..        ",
"                                                                                                                                                                                                                                ..oooooooooo........oo..        ",
"                                                                                                                                                                                                                                ..oooooooooo........oo..        ",
"                                                                                                                                                                                                                                ........................        ",
"                                                                                                                                                                                                                                ........................        ",
"                                                                                                                                                                                                                                                                ",
"                                                                                                                                                                                                                                                                ",
"                                                                                                                                                                                                                                                                ",
"                                                                                                                                                                                                                                                                ",
"                                                                                                                                                                                                                                                                ",
"                                                                                                                                                                                                                                                                ",
"                                                                                                                                                                                                                                                                ",
"                                                                                                                                                                                                                                                                ",
"                                                                                                                                                                                                                                                                ",
"                                                                                                                                                                                                                                                                ",
"                                                                                                                                                                                                                                                                ",
"                                                                                                                                                                                                                                                                ",
"                                                                                                                                                                                                                                                                ",
"                                                                                                                                                                                                                                                                ",
"                                                                                                                                                                                                                                                                ",
"                                                                                                                                                                                                                                                                "
};
