/* XPM */
static char *result[] = {
/* columns rows colors chars-per-pixel */
"48 48 2 1 ",
"  c #472D3C",
". c #CFC6B8",
/* pixels */
"                                                ",
"                                                ",
"                                                ",
"                                                ",
"                                                ",
"                                                ",
"                                                ",
"                                                ",
"                                                ",
"            ........................            ",
"            ........................            ",
"            ........................            ",
"            ........................            ",
"            ........................            ",
"            ........................            ",
"                              ......            ",
"                              ......            ",
"                              ......            ",
"                           .........            ",
"                           .........            ",
"                           .........            ",
"                        .........               ",
"                        .........               ",
"                        .........               ",
"                     .........                  ",
"                     .........                  ",
"                     .........                  ",
"                     ......                     ",
"                     ......                     ",
"                     ......                     ",
"                     ......                     ",
"                     ......                     ",
"                     ......                     ",
"                     ......                     ",
"                     ......                     ",
"                     ......                     ",
"                     ......                     ",
"                     ......                     ",
"                     ......                     ",
"                                                ",
"                                                ",
"                                                ",
"                                                ",
"                                                ",
"                                                ",
"                                                ",
"                                                ",
"                                                "
};
