/* XPM */
static char *result[] = {
/* columns rows colors chars-per-pixel */
"32 32 3 1 ",
"  c #472D3C",
". c #BE7857",
"X c #BF7958",
/* pixels */
"                                ",
"                                ",
"    XXXXXXXXXXXXXXXXXXXXXXXX    ",
"    XXXXXXXXXXXXXXXXXXXXXXXX    ",
"  XXXXXXXXXXXXXXXXXXXXXXXXXXXX  ",
"  XXXXXXXXXXXXXXXXXXXXXXXXXXXX  ",
"  XXXX                    XXXX  ",
"  XXXX                    XXXX  ",
"  XXXX  XXXXXXXXXXXXXXXX  XXXX  ",
"  XXXX  XXXXXXXXXXXXXXXX  XXXX  ",
"  XXXX  XX            XX  XXXX  ",
"  XXXX  XX            XX  XXXX  ",
"  XXXX  XX            XX  XXXX  ",
"  XXXX  XX            XX  XXXX  ",
"  XXXX  XX            XX  XXXX  ",
"  XXXX  XX            XX  XXXX  ",
"  XXXX  XX            XX  XXXX  ",
"  XXXX  XX            XX  XXXX  ",
"  XXXX  XXXXXXXXXXXXXXXX  XXXX  ",
"  XXXX  XXXXXXXXXXXXXXXX  XXXX  ",
"  XXXX  XXXXXXXXXXXX  XX  XXXX  ",
"  XXXX  XXXXXXXXXXXX  XX  XXXX  ",
"  XXXX  XXXXXXXXXXXX  XX  XXXX  ",
"  XXXX  XXXXXXXXXXXX  XX  XXXX  ",
"  XXXX  XXXXXXXXXXXXXXXX  XXXX  ",
"  XXXX  XXXXXXXXXXXXXXXX  XXXX  ",
"  XXXX  XXXXXXXXXXXXXXXX  XXXX  ",
"  XXXX  XXXXXXXXXXXXXXXX  XXXX  ",
"  XXXX  XXXXXXXXXXXXXXXX  XXXX  ",
"  XXXX  XXXXXXXXXXXXXXX.  XXXX  ",
"                                ",
"                                "
};
