/* XPM */
static char *result[] = {
/* columns rows colors chars-per-pixel */
"32 32 4 1 ",
"  c #472D3C",
". c #4A2F3B",
"X c #482E3C",
"o c #F4B41B",
/* pixels */
"                                ",
"                                ",
"                                ",
"                                ",
"                                ",
"                                ",
"                                ",
"                                ",
"                                ",
"                                ",
"            oooooooo            ",
"            oooooooo            ",
"          oo      oooo          ",
"          oo      oooo          ",
"          oo  oo  oooo          ",
"          oo  oo  oooo          ",
"          oo  oo  oooo          ",
"          oo  oo  oooo          ",
"          oo      oooo          ",
"          oo      oooo          ",
"            oooooooo            ",
"            oooooooo            ",
"                                ",
"                                ",
"                                ",
"              X                 ",
"                                ",
"               .                ",
"              XX                ",
"              X                 ",
"                                ",
"               X                "
};
