/* XPM */
static char *result[] = {
/* columns rows colors chars-per-pixel */
"128 32 6 1 ",
"  c #472D3C",
". c #353540",
"X c #EEB551",
"o c #7C6DA2",
"O c #CFC6B8",
"+ c #EDE4DA",
/* pixels */
"                                                                                                                                ",
"                                                                                                                                ",
"                                                                                                                                ",
"                                                                                                                                ",
"                                                                                                                                ",
"                                                                                                                                ",
"                                                                                                                                ",
"                                                                                                                 ............   ",
"                                                                                                                 .+++ooooooo.   ",
"                                                                                                                 .+ooooooooo.   ",
"                                                                                                                 .oooo....oo.   ",
"     OOOOOO          OOOOOO                         OO               OOOOOO         OOOOOOO          OOOOOO      .ooo......o.   ",
"    OOOOOOOO        OOOOOOOO                        OO              OOOOOOOO        OOOOOOOO        OOOOOOOO     .ooo++...+o.   ",
"    OO    OO        OO    OO                        OO              OO    OO        OO    OO        OO    OO     .ooo++...+o.   ",
"    OO              OO    OO                        OO              OO    OO        OO    OO        OO           .ooo......o.   ",
"    OOOOOOO         OO    OO                        OO              OO    OO        OO    OO        OO  OOOO     .oooo....oo.   ",
"     OOOOOOO        OO    OO                        OO              OO    OO        OO    OO        OO  OOOO     .ooooo..ooo.   ",
"          OO        OO    OO                        OO              OO    OO        OO    OO        OO    OO     ..ooooXXoo..   ",
"    OO    OO        OO    OO                        OO              OO    OO        OO    OO        OO    OO      .oooo..oo.    ",
"    OOOOOOOO        OOOOOOOO       OOOOOOOOOO       OOOOOOOO        OOOOOOOO        OO    OO        OOOOOOOO     ..oooo..oo.    ",
"     OOOOOO          OOOOOO        OOOOOOOOOO       OOOOOOOO         OOOOOO         OO    OO         OOOOOO     ..ooooo..oo.    ",
"                                                                                                                .oooooo..oo.    ",
"                                                                                                                .ooooo....o.    ",
"                                                                                                                ............    ",
"                                                                                                                                ",
"                                                                                                                                ",
"                                                                                                                                ",
"                                                                                                                                ",
"                                                                                                                                ",
"                                                                                                                                ",
"                                                                                                                                ",
"                                                                                                                                "
};
