/* XPM */
static char *result[] = {
/* columns rows colors chars-per-pixel */
"48 48 5 1 ",
"  c #353540",
". c #EEB551",
"X c #7C6DA2",
"o c #EDE4DA",
"O c None",
/* pixels */
"OOOOOOOOOOOOOOOOOOOOOOOOOOOOOOOOOOOOOOOOOOOOOOOO",
"OOOOOOOOOOOOOOOOOOOOOOOOOOOOOOOOOOOOOOOOOOOOOOOO",
"OOOOOOOOOOOOOOOOOOOOOOOOOOOOOOOOOOOOOOOOOOOOOOOO",
"OOOOOOOO                                OOOOOOOO",
"OOOOOOOO                                OOOOOOOO",
"OOOOOOOO                                OOOOOOOO",
"OOOOOOOO  ooooooooXXXXXXXXXXXXXXXXXXX   OOOOOOOO",
"OOOOOOOO  ooooooooXXXXXXXXXXXXXXXXXXX   OOOOOOOO",
"OOOOOOOO  oooXXXXXXXXXXXXXXXXXXXXXXXX   OOOOOOOO",
"OOOOOOOO  oooXXXXXXXXXXXXXXXXXXXXXXXX   OOOOOOOO",
"OOOOOOOO  oooXXXXXXXXXXXXXXXXXXXXXXXX   OOOOOOOO",
"OOOOOOOO  XXXXXXXXXXX           XXXXX   OOOOOOOO",
"OOOOOOOO  XXXXXXXXXXX           XXXXX   OOOOOOOO",
"OOOOOOOO  XXXXXXXXXXX           XXXXX   OOOOOOOO",
"OOOOOOOO  XXXXXXXX                XXX   OOOOOOOO",
"OOOOOOOO  XXXXXXXX                XXX   OOOOOOOO",
"OOOOOOOO  XXXXXXXXoooooo        ooXXX   OOOOOOOO",
"OOOOOOOO  XXXXXXXXoooooo        ooXXX   OOOOOOOO",
"OOOOOOOO  XXXXXXXXoooooo        ooXXX   OOOOOOOO",
"OOOOOOOO  XXXXXXXXoooooo        ooXXX   OOOOOOOO",
"OOOOOOOO  XXXXXXXXoooooo        ooXXX   OOOOOOOO",
"OOOOOOOO  XXXXXXXXoooooo        ooXXX   OOOOOOOO",
"OOOOOOOO  XXXXXXXX                XXX   OOOOOOOO",
"OOOOOOOO  XXXXXXXX                XXX   OOOOOOOO",
"OOOOOOOO  XXXXXXXXXXX           XXXXX   OOOOOOOO",
"OOOOOOOO  XXXXXXXXXXX           XXXXX   OOOOOOOO",
"OOOOOOOO  XXXXXXXXXXX           XXXXX   OOOOOOOO",
"OOOOOOOO  XXXXXXXXXXXXXX     XXXXXXXX   OOOOOOOO",
"OOOOOOOO  XXXXXXXXXXXXXX     XXXXXXXX   OOOOOOOO",
"OOOOOOOO  XXXXXXXXXXXXXX     XXXXXXXX   OOOOOOOO",
"OOOOOOOO     XXXXXXXXXXX.....XXXXX      OOOOOOOO",
"OOOOOOOO     XXXXXXXXXXX.....XXXXX      OOOOOOOO",
"OOOOOOOOOO   XXXXXXXXXXX     XXXXX   OOOOOOOOOOO",
"OOOOOOOOOO   XXXXXXXXXXX     XXXXX   OOOOOOOOOOO",
"OOOOOOOOOO   XXXXXXXXXXX     XXXXX   OOOOOOOOOOO",
"OOOOOOOO     XXXXXXXXXXX     XXXXX   OOOOOOOOOOO",
"OOOOOOOO     XXXXXXXXXXX     XXXXX   OOOOOOOOOOO",
"OOOOOOOO     XXXXXXXXXXX     XXXXX   OOOOOOOOOOO",
"OOOOO     XXXXXXXXXXXXXX     XXXXX   OOOOOOOOOOO",
"OOOOO     XXXXXXXXXXXXXX     XXXXX   OOOOOOOOOOO",
"OOOOO   XXXXXXXXXXXXXXXX     XXXXX   OOOOOOOOOOO",
"OOOOO   XXXXXXXXXXXXXXXX     XXXXX   OOOOOOOOOOO",
"OOOOO   XXXXXXXXXXXXXXXX     XXXXX   OOOOOOOOOOO",
"OOOOO   XXXXXXXXXXXXX           XX   OOOOOOOOOOO",
"OOOOO   XXXXXXXXXXXXX           XX   OOOOOOOOOOO",
"OOOOO   XXXXXXXXXXXXX           XX   OOOOOOOOOOO",
"OOOOO                                OOOOOOOOOOO",
"OOOOO                                OOOOOOOOOOO"
};
