/* XPM */
static char *result[] = {
/* columns rows colors chars-per-pixel */
"48 48 5 1 ",
"  c #353540",
". c #EEB551",
"X c #7C6DA2",
"o c #EDE4DA",
"O c None",
/* pixels */
"OOOOOOOOOOOOOOOOOOOOOOOOOOOOOOOOOOOOOOOOOOOOOOOO",
"OOOOOOOOOOOOOOOOOOOOOOOOOOOOOOOOOOOOOOOOOOOOOOOO",
"OOOOOOOOOOOOOOOOOOOOOOOOOOOOOOOOOOOOOOOOOOOOOOOO",
"OOOOOOOOOOOOOOOOOOOOOOOOOOOOOOOOOOOOOOOOOOOOOOOO",
"OOOOOOOOOOOOOOOOOOOOOOOOOOOOOOOOOOOOOOOOOOOOOOOO",
"OOOOOOOOOOOOOOOOOOOOOOOOOOOOOOOOOOOOOOOOOOOOOOOO",
"OOOOOOOOOOOOOOOOOOOOOOOOOOOOOOOOOOOOOOOOOOOOOOOO",
"OOOOOOOOOOOOOOOOOOOOOOOOOOOOOOOOOOOOOOOOOOOOOOOO",
"OOOOOOOOOO                                OOOOOO",
"OOOOOOOOOO                                OOOOOO",
"OOOOOOOOOO                                OOOOOO",
"OOOOOOOOOO   ooooooooXXXXXXXXXXXXXXXXXXX  OOOOOO",
"OOOOOOOOOO   ooooooooXXXXXXXXXXXXXXXXXXX  OOOOOO",
"OOOOOOOOOO   ooooooooXXXXXXXXXXXXXXXXXXX  OOOOOO",
"OOOOOOOOOO   oooXXXXXXXXXXXXXXXXXXXXXXXX  OOOOOO",
"OOOOOOOOOO   oooXXXXXXXXXXXXXXXXXXXXXXXX  OOOOOO",
"OOOOOOOOOO   XXXXXXXXXXX          XXXXXX  OOOOOO",
"OOOOOOOOOO   XXXXXXXXXXX          XXXXXX  OOOOOO",
"OOOOOOOOOO   XXXXXXXXXXX          XXXXXX  OOOOOO",
"OOOOOOOOOO   XXXXXXXX                XXX  OOOOOO",
"OOOOOOOOOO   XXXXXXXX                XXX  OOOOOO",
"OOOOOOOOOO   XXXXXXXX                XXX  OOOOOO",
"OOOOOOOOOO   XXXXXXXXooooo        oooXXX  OOOOOO",
"OOOOOOOOOO   XXXXXXXXooooo        oooXXX  OOOOOO",
"OOOOOOOOOO   XXXXXXXXooooo        oooXXX  OOOOOO",
"OOOOOOOOOO   XXXXXXXXooooo        oooXXX  OOOOOO",
"OOOOOOOOOO   XXXXXXXXooooo        oooXXX  OOOOOO",
"OOOOOOOOOO   XXXXXXXX                XXX  OOOOOO",
"OOOOOOOOOO   XXXXXXXX                XXX  OOOOOO",
"OOOOOOOOOO   XXXXXXXX                XXX  OOOOOO",
"OOOOOOOOOO   XXXXXXXXXXX          XXXXXX  OOOOOO",
"OOOOOOOOOO   XXXXXXXXXXX          XXXXXX  OOOOOO",
"OOOOOOOOOO   XXXXXXXXXXXXX      XXXXXXXX  OOOOOO",
"OOOOOOOOOO   XXXXXXXXXXXXX      XXXXXXXX  OOOOOO",
"OOOOOOOOOO   XXXXXXXXXXXXX      XXXXXXXX  OOOOOO",
"OOOOOOOO     XXXXXXXXXXXXX......XXXXX     OOOOOO",
"OOOOOOOO     XXXXXXXXXXXXX......XXXXX     OOOOOO",
"OOOOOOOO     XXXXXXXXXXXXX......XXXXX     OOOOOO",
"OOOOO     XXXXXXXXXXXXXXXX      XXXXX   OOOOOOOO",
"OOOOO     XXXXXXXXXXXXXXXX      XXXXX   OOOOOOOO",
"OOOOO   XXXXXXXXXXXXXXXXXX      XXXXX   OOOOOOOO",
"OOOOO   XXXXXXXXXXXXXXXXXX      XXXXX   OOOOOOOO",
"OOOOO   XXXXXXXXXXXXXXXXXX      XXXXX   OOOOOOOO",
"OOOOO   XXXXXXXXXXXXXXXX          XXX   OOOOOOOO",
"OOOOO   XXXXXXXXXXXXXXXX          XXX   OOOOOOOO",
"OOOOO   XXXXXXXXXXXXXXXX          XXX   OOOOOOOO",
"OOOOO                                   OOOOOOOO",
"OOOOO                                   OOOOOOOO"
};
