/* XPM */
static char *result[] = {
/* columns rows colors chars-per-pixel */
"48 48 5 1 ",
"  c #353540",
". c #EEB551",
"X c #7C6DA2",
"o c #EDE4DA",
"O c None",
/* pixels */
"OOOOOOOOOOOOOOOOOOOOOOOOOOOOOOOOOOOOOOOOOOOOOOOO",
"OOOOOOOOOOOOOOOOOOOOOOOOOOOOOOOOOOOOOOOOOOOOOOOO",
"OOOOOOOOOOOOOOOOOOOOOOOOOOOOOOOOOOOOOOOOOOOOOOOO",
"OOOOOOOOOOOOOOOOOOOOOOOOOOOOOOOOOOOOOOOOOOOOOOOO",
"OOOOOOOOOOOOOOOOOOOOOOOOOOOOOOOOOOOOOOOOOOOOOOOO",
"OOOOOOOOOOOOOOOOOOOOOOOOOOOOOOOOOOOOOOOOOOOOOOOO",
"OOOOOOOOOOOOOOOOOOOOOOOOOOOOOOOOOOOOOOOOOOOOOOOO",
"OOOOOOOOOOOOOOOOOOOOOOOOOOOOOOOOOOOOOOOOOOOOOOOO",
"OOOOOOOOOOOOOOOOOOOOOOOOOOOOOOOOOOOOOOOOOOOOOOOO",
"OOOOOOOOOOOOOOOOOOOOOOOOOOOOOOOOOOOOOOOOOOOOOOOO",
"OOOOOOOOOOOOOOOOOOOOOOOOOOOOOOOOOOOOOOOOOOOOOOOO",
"OOOOOOOOOO                                OOOOOO",
"OOOOOOOOOO                                OOOOOO",
"OOOOOOOOOO                                OOOOOO",
"OOOOOOOOOO   ooooooooXXXXXXXXXXXXXXXXXXX  OOOOOO",
"OOOOOOOOOO   ooooooooXXXXXXXXXXXXXXXXXXX  OOOOOO",
"OOOOOOOOOO   oooXXXXXXXXXXXXXXXXXXXXXXXX  OOOOOO",
"OOOOOOOOOO   oooXXXXXXXXXXXXXXXXXXXXXXXX  OOOOOO",
"OOOOOOOOOO   oooXXXXXXXXXXXXXXXXXXXXXXXX  OOOOOO",
"OOOOOOOOOO   XXXXXXXXXXX          XXXXXX  OOOOOO",
"OOOOOOOOOO   XXXXXXXXXXX          XXXXXX  OOOOOO",
"OOOOOOOOOO   XXXXXXXXXXX          XXXXXX  OOOOOO",
"OOOOOOOOOO   XXXXXXXX                XXX  OOOOOO",
"OOOOOOOOOO   XXXXXXXX                XXX  OOOOOO",
"OOOOOOOOOO   XXXXXXXXooooo        oooXXX  OOOOOO",
"OOOOOOOOOO   XXXXXXXXooooo        oooXXX  OOOOOO",
"OOOOOOOOOO   XXXXXXXXooooo        oooXXX  OOOOOO",
"OOOOOOOOOO   XXXXXXXXooooo        oooXXX  OOOOOO",
"OOOOOOOOOO   XXXXXXXXooooo        oooXXX  OOOOOO",
"OOOOOOOOOO   XXXXXXXXooooo        oooXXX  OOOOOO",
"OOOOOOOOOO   XXXXXXXXXXX          XXXXXX  OOOOOO",
"OOOOOOOOOO   XXXXXXXXXXX          XXXXXX  OOOOOO",
"OOOOOOOO     XXXXXXXXXXXXX      XXXXXXXX  OOOOOO",
"OOOOOOOO     XXXXXXXXXXXXX      XXXXXXXX  OOOOOO",
"OOOOOOOO     XXXXXXXXXXXXX      XXXXXXXX  OOOOOO",
"OOOOO     XXXXXXXXXXXXXXXX......XXXXXXXX  OOOOOO",
"OOOOO     XXXXXXXXXXXXXXXX......XXXXXXXX  OOOOOO",
"OOOOO     XXXXXXXXXXXXXXXX......XXXXXXXX  OOOOOO",
"OO      XXXXXXXXXXXXXXXXXX      XXXXXXXX  OOOOOO",
"OO      XXXXXXXXXXXXXXXXXX      XXXXXXXX  OOOOOO",
"OO   XXXXXXXXXXXXXXXXXXXXX      XXXXXXXX  OOOOOO",
"OO   XXXXXXXXXXXXXXXXXXXXX      XXXXXXXX  OOOOOO",
"OO   XXXXXXXXXXXXXXXXXXXXX      XXXXXXXX  OOOOOO",
"OO   XXXXXXXXXXXXXXXXXXX          XXXXXX  OOOOOO",
"OO   XXXXXXXXXXXXXXXXXXX          XXXXXX  OOOOOO",
"OO   XXXXXXXXXXXXXXXXXXX          XXXXXX  OOOOOO",
"OO                                        OOOOOO",
"OO                                        OOOOOO"
};
