/* XPM */
static char *result[] = {
/* columns rows colors chars-per-pixel */
"48 48 5 1 ",
"  c #353540",
". c #735B42",
"X c #EEB551",
"o c #D2C1B1",
"O c None",
/* pixels */
"OOOOOOOOOOOOOOOOOOOOOOOOOOOOOOOOOOOOOOOOOOOOOOOO",
"OOOOOOOOOOOOOOOOOOOOOOOOOOOOOOOOOOOOOOOOOOOOOOOO",
"OOOOOOOOOOOOOOOOOOOOOOOOOOOOOOOOOOOOOOOOOOOOOOOO",
"OOOOOOOOOO                            OOOOOOOOOO",
"OOOOOOOOOO                            OOOOOOOOOO",
"OOOOOOOOOO                            OOOOOOOOOO",
"OOOOOOOOOO  XXXXXXXXXXXXXXXXXXXXXXXX  OOOOOOOOOO",
"OOOOOOOOOO  XXXXXXXXXXXXXXXXXXXXXXXX  OOOOOOOOOO",
"OOOOOOOOOO  XXXXXXXXXXXXXXXXXXXXXXXX  OOOOOOOOOO",
"OOOOOOOOOO  XXXXXXXXXXXXXXXXXXXXXXXX  OOOOOOOOOO",
"OOOOOOOOOO  XXXXXXXXXXXXXXXXXXXXXXXX  OOOOOOOOOO",
"OOOOOOOOOO  XXXXooooooooooooooooXXXX  OOOOOOOOOO",
"OOOOOOOOOO  XXXXooooooooooooooooXXXX  OOOOOOOOOO",
"OOOOOOOOOO  XXXXooooooooooooooooXXXX  OOOOOOOOOO",
"OOOOOOOOOO  XXooooooooooooooooooooXX  OOOOOOOOOO",
"OOOOOOOOOO  XXooooooooooooooooooooXX  OOOOOOOOOO",
"OOOOOOOOOO  XXooooooooooooooooooooXX  OOOOOOOOOO",
"OOOOOOOOOO  XXooo    oooooo    oooXX  OOOOOOOOOO",
"OOOOOOOOOO  XXooo    oooooo    oooXX  OOOOOOOOOO",
"OOOOOOOOOO   oooo    oooooo    oooo   OOOOOOOOOO",
"OOOOOOOOOO   oooo    oooooo    oooo   OOOOOOOOOO",
"OOOOOOOOOOO  oooo    oooooo    oooo  OOOOOOOOOOO",
"OOOOOOOOOOO  oooooooooooooooooooooo  OOOOOOOOOOO",
"OOOOOOOOOOO  oooooooooooooooooooooo  OOOOOOOOOOO",
"OOOOOOOOOOO  oooooooooooooooooooooo  OOOOOOOOOOO",
"OOOOOOOOOOO  oooooooooooooooooooooo  OOOOOOOOOOO",
"OOOOOOOOOOO  oooooooooooooooooooooo  OOOOOOOOOOO",
"OOOOOOOOOOO  oooooooooooooooooooooo  OOOOOOOOOOO",
"OOOOOOOOOOO  oooooooooooooooooooooo  OOOOOOOOOOO",
"OOOOOOOOOOO  oooooooooooooooooooooo  OOOOOOOOOOO",
"OOOOOOOOOOO  ...........ooo........  OOOOOOOOOOO",
"OOOOOOOOOOO  ...........ooo........  OOOOOOOOOOO",
"OOOOOOOOOOO  ...........oo.........  OOOOOOOOOOO",
"OOOOOOOOOOO  ......................  OOOOOOOOOOO",
"OOOOOOOOOOO  ......................  OOOOOOOOOOO",
"OOOOOOOOOOO  ......................  OOOOOOOOOOO",
"OOOOOOOOOOO  ......................  OOOOOOOOOOO",
"OOOOOOOOOOO  ......................  OOOOOOOOOOO",
"OOOOOOOOOOO  ......................  OOOOOOOOOOO",
"OOOOOOOOOOO  ......................  OOOOOOOOOOO",
"OOOOOOOOOOO  ......          ......  OOOOOOOOOOO",
"OOOOOOOOOOO  ......          ......  OOOOOOOOOOO",
"OOOOOOOOOOO                  ......  OOOOOOOOOOO",
"OOOOOOOOOOO          OOOOOO  ......  OOOOOOOOOOO",
"OOOOOOOOOOOOOOOOOOOOOOOOOOO  ......  OOOOOOOOOOO",
"OOOOOOOOOOOOOOOOOOOOOOOOOOO          OOOOOOOOOOO",
"OOOOOOOOOOOOOOOOOOOOOOOOOOO          OOOOOOOOOOO",
"OOOOOOOOOOOOOOOOOOOOOOOOOOO          OOOOOOOOOOO"
};
