/* XPM */
static char *result[] = {
/* columns rows colors chars-per-pixel */
"48 48 6 1 ",
"  c #353540",
". c #735B42",
"X c #8B9150",
"o c #EEB551",
"O c #EDE4DA",
"+ c None",
/* pixels */
"++++++++++++++++++++++++++++++++++++++++++++++++",
"++++++++++++++++++++++++++++++++++++++++++++++++",
"++++++++++++++++++++++++++++++++++++++++++++++++",
"+++++++++++                          +++++++++++",
"+++++++++++                          +++++++++++",
"+++++++++++  oooooo  oooOOO  oooooo  +++++++++++",
"+++++++++++  oooooo  oooOOO  oooooo  +++++++++++",
"+++++++++++  oooooo  oooOOO  oooooo  +++++++++++",
"+++++++++++  oooooooooooooooooooooo  +++++++++++",
"+++++++++++  oooooooooooooooooooooo  +++++++++++",
"+++++++++++  oooooooooooooooooooooo  +++++++++++",
"+++++++++++  OOOXXXXXXXXXXXXXXXXXXX  +++++++++++",
"+++++++++++  OOOXXXXXXXXXXXXXXXXXXX  +++++++++++",
"+++++++++++  XXXXXXXXXXXXXXXXXXXXXX  +++++++++++",
"+++++++++++  XXXXXXXXXXXXXXXXXXXXXX  +++++++++++",
"+++++++++++  XXXXXXXXXXXXXXXXXXXXXX  +++++++++++",
"++++++++     XXXXXXXXXXXXXXXXXXXXXX     ++++++++",
"++++++++     XXXXXXXXXXXXXXXXXXXXXX     ++++++++",
"++++++++     XXXXXXXXXXXXXXXXXXXXXX     ++++++++",
"++++++++   XXXXX     XXXXXX     XXXXX   ++++++++",
"++++++++   XXXXX     XXXXXX     XXXXX   ++++++++",
"++++++++   XXXXX     XXXXXX     XXXXX   ++++++++",
"++++++++   XXXXX     XXXXXX     XXXXX   ++++++++",
"++++++++   XXXXX     XXXXXX     XXXXX   ++++++++",
"++++++++     XXXXXXXXXXXXXXXXXXXXXX     ++++++++",
"++++++++     XXXXXXXXXXXXXXXXXXXXXX     ++++++++",
"++++++++     XXXXXXXXXXXXXXXXXXXXXX     ++++++++",
"+++++++++++  XXXXXXXXXXXXXXXXXXXXXX  +++++++++++",
"+++++++++++  XXXXXXXXXXXXXXXXXXXXXX  +++++++++++",
"+++++++++++  ......................  +++++++++++",
"+++++++++++  ......................  +++++++++++",
"+++++++++++  ......................  +++++++++++",
"+++++++++++  ......................  +++++++++++",
"+++++++++++  ......................  +++++++++++",
"+++++++++++  ......................  +++++++++++",
"+++++++++++  ......................  +++++++++++",
"+++++++++++  ......................  +++++++++++",
"+++++++++++  XXXXXX          XXXXXX  +++++++++++",
"+++++++++++  XXXXXX          XXXXXX  +++++++++++",
"+++++++++++  XXXXXX          XXXXXX  +++++++++++",
"+++++++++++  XXXXXX  ++++++          +++++++++++",
"+++++++++++  XXXXXX  ++++++          +++++++++++",
"+++++++++++  XXXXXX  ++++++          +++++++++++",
"+++++++++++          +++++++++++++++++++++++++++",
"+++++++++++          +++++++++++++++++++++++++++",
"++++++++++++++++++++++++++++++++++++++++++++++++",
"++++++++++++++++++++++++++++++++++++++++++++++++",
"++++++++++++++++++++++++++++++++++++++++++++++++"
};
