/* XPM */
static char *result[] = {
/* columns rows colors chars-per-pixel */
"48 48 5 1 ",
"  c #353540",
". c #8B9150",
"X c #BDA351",
"o c #EDE4DA",
"O c None",
/* pixels */
"OOOOOOOOOOOOOOOOOOOOOOOOOOOOOOOOOOOOOOOOOOOOOOOO",
"OOOOOOOOOOOOOOOOOOOOOOOOOOOOOOOOOOOOOOOOOOOOOOOO",
"OOOOOOOOOOOOOOOOOOOOOOOOOOOOOOOOOOOOOOOOOOOOOOOO",
"OOOOOOOOOOOOOOOOOOOOOOOOOOOOOOOOOOOOOOOOOOOOOOOO",
"OOOOOOOOOOOOOOOOOOOOOOOOOOOOOOOOOOOOOOOOOOOOOOOO",
"OOOOOOOOOOOOOOOOOOOOOOOOOOOOOOOOOOOOOOOOOOOOOOOO",
"OOOOOOOOOOOOOOOOOOOOOOOOOOOOOOOOOOOOOOOOOOOOOOOO",
"OOOOOOOOOOOOOOOOOOOOOOOOOOOOOOOOOOOOOOOOOOOOOOOO",
"OOOOOOOOOOOOOOOOOOOOOOOOOOOOOOOOOOOOOOOOOOOOOOOO",
"OOOOOOOOOOOOOOOOOOOOOOOOOOOOOOOOOOOOOOOOOOOOOOOO",
"OOOOOOOOOOOOOOOOOOOOOOOOOOOOOOOOOOOOOOOOOOOOOOOO",
"OOOOOOOOOOOOOOOOOOOOOOOOOOOOOOOOOOOOOOOOOOOOOOOO",
"OOOOOOOOOOOOOOOOOOOOOOOOOOOOOOOOOOOOOOOOOOOOOOOO",
"OOOOOOOOOOOOOOOOOOOOOOOOOOOOOOOOOOOOOOOOOOOOOOOO",
"OOOOOOOOOOOOOOOOOOOOOOOOOOOOOOOOOOOOOOOOOOOOOOOO",
"OOOOOOOOOOOOOOOOOOOOOOOOOOOOOOOOOOOOOOOOOOOOOOOO",
"OOOOOOOOOOOOOOOOOOOOOOOOOOOOOOOOOOOOOOOOOOOOOOOO",
"OOOOOOOOOOOOOOOOOOOOOOOOOOOOOOOOOOOOOOOOOOOOOOOO",
"OOOOOOOOOOOOOOOOOOOOOOOOOOOOOOOOOOOOOOOOOOOOOOOO",
"OOOOOOOOOOOOOOOOOOOOOOOOOOOOOOOOOOOOOOOOOOOOOOOO",
"OOOOOOOOOOOOOOOOOOOOOOOOOOOOOOOOOOOOOOOOOOOOOOOO",
"OOOOOOOOOOOOOOOOOOOOOOOOOOOOOOOOOOOOOOOOOOOOOOOO",
"OOOOOOOOOOOOOOOOOOOOOOOOOOOOOOOOOOOOOOOOOOOOOOOO",
"OOOOOOOOOOOOOOOOOOOOOOOOOOOOOOOOOOOOOOOOOOOOOOOO",
"OOOOOOOOOOO                          OOOOOOOOOOO",
"OOOOOOOOOOO                          OOOOOOOOOOO",
"OOOOOOOOOOO                          OOOOOOOOOOO",
"OOOOOOOOOOO  ...........oooooooo...  OOOOOOOOOOO",
"OOOOOOOOOOO  ...........oooooooo...  OOOOOOOOOOO",
"OOOOOOOOOOO  ...XXXXXXXXXXXXXXXX...  OOOOOOOOOOO",
"OOOOOOOOOOO  ...XXXXXXXXXXXXXXXX...  OOOOOOOOOOO",
"OOOOOOOOOOO  ...XXXXXXXXXXXXXXXX...  OOOOOOOOOOO",
"OOOOOOOOOOO  ...XXXXXXXXXXXXXXXX...  OOOOOOOOOOO",
"OOOOOOOOOOO  ...XXXXXXXXXXXXXXXX...  OOOOOOOOOOO",
"OOOOOOOOOOO  ...XXXXXXXXXXXXXXXX...  OOOOOOOOOOO",
"OOOOOOOO     ...XXXXXXXXXXXXXXXX...     OOOOOOOO",
"OOOOOOOO     ...XXXXXXXXXXXXXXXX...     OOOOOOOO",
"OOOOO      .....XXXXXXXXXXXXXXXX.....      OOOOO",
"OOOOO      .....XXXXXXXXXXXXXXXX.....      OOOOO",
"OOOOO      .....XXXXXXXXXXXXXXXX.....      OOOOO",
"OOOOO   .....XXXXXXXXXXXXXXXXXXXXXX.....   OOOOO",
"OOOOO   .....XXXXXXXXXXXXXXXXXXXXXX.....   OOOOO",
"OOOOO   .....XXXXXXXXXXXXXXXXXXXXXX.....   OOOOO",
"OOOOO   ................................   OOOOO",
"OOOOO   ................................   OOOOO",
"OOOOO                                      OOOOO",
"OOOOO                                      OOOOO",
"OOOOO                                      OOOOO"
};
