/* XPM */
static char *result[] = {
/* columns rows colors chars-per-pixel */
"48 48 5 1 ",
"  c #353540",
". c #8B9150",
"X c #BDA351",
"o c #EDE4DA",
"O c None",
/* pixels */
"OOOOOOOOOOOOOOOOOOOOOOOOOOOOOOOOOOOOOOOOOOOOOOOO",
"OOOOOOOOOOOOOOOOOOOOOOOOOOOOOOOOOOOOOOOOOOOOOOOO",
"OOOOOOOOOOOOOOOOOOOOOOOOOOOOOOOOOOOOOOOOOOOOOOOO",
"OOOOOOOOOOOOOOOOOOOOOOOOOOOOOOOOOOOOOOOOOOOOOOOO",
"OOOOOOOOOOOOOOOOOOOOOOOOOOOOOOOOOOOOOOOOOOOOOOOO",
"OOOOOOOOOOOOOOOOOOOOOOOOOOOOOOOOOOOOOOOOOOOOOOOO",
"OOOOOOOOOOOOOOOOOOOOOOOOOOOOOOOOOOOOOOOOOOOOOOOO",
"OOOOOOOOOOOOOOOOOOOOOOOOOOOOOOOOOOOOOOOOOOOOOOOO",
"OOOOOOOOOOO                          OOOOOOOOOOO",
"OOOOOOOOOOO                          OOOOOOOOOOO",
"OOOOOOOOOOO                          OOOOOOOOOOO",
"OOOOOOOOOOO  ...........oooooooo...  OOOOOOOOOOO",
"OOOOOOOOOOO  ...........oooooooo...  OOOOOOOOOOO",
"OOOOOOOOOOO  ...XXXXXXXXXXXXXXXX...  OOOOOOOOOOO",
"OOOOOOOOOOO  ...XXXXXXXXXXXXXXXX...  OOOOOOOOOOO",
"OOOOOOOOOOO  ...     XXXXXX     ...  OOOOOOOOOOO",
"OOOOOOOOOOO  ...     XXXXXX     ...  OOOOOOOOOOO",
"OOOOOOOOOOO  ...     XXXXXX     ...  OOOOOOOOOOO",
"OOOOOOOOOOO  ...     XXXXXX     ...  OOOOOOOOOOO",
"OOOOOOOOOOO  ...     XXXXXX     ...  OOOOOOOOOOO",
"OOOOOOOOOOO  ...XXXXXXXXXXXXXXXX...  OOOOOOOOOOO",
"OOOOOOOOOOO  ...XXXXXXXXXXXXXXXX...  OOOOOOOOOOO",
"OOOOOOOOOOO  ...XXXXXXXXXXXXXXXX...  OOOOOOOOOOO",
"OOOOOOOOOOO  ...XXXXXXXXXXXXXXXX...  OOOOOOOOOOO",
"OOOOOOOOOOO  ...   XX   XXX  XXX     OOOOOOOOOOO",
"OOOOOOOOOOO  ...   XX   XXX  XXX     OOOOOOOOOOO",
"OOOOOOOOOOO  ...   XX   XXX  XXX     OOOOOOOOOOO",
"OOOOOOOOOOO        XX        XXX     OOOOOOOOOOO",
"OOOOOOOOOOO        XX        XXX     OOOOOOOOOOO",
"OOOOOOOOOOOOO                      OOOOOOOOOOOOO",
"OOOOOOOOOOOOO                      OOOOOOOOOOOOO",
"OOOOOOOOOOOOO                      OOOOOOOOOOOOO",
"OOOOOOOOOOO                          OOOOOOOOOOO",
"OOOOOOOOOOO                          OOOOOOOOOOO",
"OOOOOOOOOOO                          OOOOOOOOOOO",
"OOOOOOOO                                OOOOOOOO",
"OOOOOOOO                                OOOOOOOO",
"OOOOO      ..           XXX        ..      OOOOO",
"OOOOO      ..           XXX        ..      OOOOO",
"OOOOO      ..           XXX        ..      OOOOO",
"OOOOO   .....XXX   XX   XXX  XXX   .....   OOOOO",
"OOOOO   .....XXX   XX   XXX  XXX   .....   OOOOO",
"OOOOO   .....XXX   XX   XXX  XXX   .....   OOOOO",
"OOOOO   ................................   OOOOO",
"OOOOO   ................................   OOOOO",
"OOOOO                                      OOOOO",
"OOOOO                                      OOOOO",
"OOOOO                                      OOOOO"
};
