/* XPM */
static char *result[] = {
/* columns rows colors chars-per-pixel */
"48 48 6 1 ",
"  c #34343C",
". c #745C44",
"X c #ECB454",
"o c #D5C6B7",
"O c #EEE5DB",
"+ c None",
/* pixels */
"++++++                                    ++++++",
"++++++                                    ++++++",
"++++++                                    ++++++",
"++++++   XXXOOOOOOOOOOOOXXXXXXXXXXXXXXX   ++++++",
"++++++   XXXOOOOOOOOOOOOXXXXXXXXXXXXXXX   ++++++",
"++++++   XXXOOOOOOOOOOOOXXXXXXXXXXXXXXX   ++++++",
"++++++   XXXXXXXXXXXXXXXXXXXXXXXXXXXXXX   ++++++",
"++++++   XXXXXXXXXXXXXXXXXXXXXXXXXXXXXX   ++++++",
"++++++   XXXXXXXXXXXXXXXXXXXXXXXXXXXXXX   ++++++",
"++++++   XXXXXXXXXXXXXXXXXXXXXXXXXXXXXX   ++++++",
"++++++   XXXXXXXXXXXXXXXXXXXXXXXXXXXXXX   ++++++",
"++++++   XXXXXXXXXXXXXXXXXXXXXXXXXXXXXX   ++++++",
"++++++      XXXXXXXXXXXXXXXXXXXXXXXX      ++++++",
"++++++      XXXXXXXXXXXXXXXXXXXXXXXX      ++++++",
"++++++      XXXXXXXXXXXXXXXXXXXXXXXX      ++++++",
"+++++++++   XXXXXXXXXXXXXXXXXXXXXXXX   +++++++++",
"+++++++++   XXXXXXXXXXXXXXXXXXXXXXXX   +++++++++",
"+++++++++   XXXXXXXXXXXXXXXXXXXXXXXX   +++++++++",
"+++++++++   oooXXXXXXXXXXXXXXXXXXooo   +++++++++",
"+++++++++   oooXXXXXXXXXXXXXXXXXXooo   +++++++++",
"+++++++++   oooXXXXXXXXXXXXXXXXXXooo   +++++++++",
"+++++++++   oooooooooooooooooooooooo   +++++++++",
"+++++++++   oooooooooooooooooooooooo   +++++++++",
"+++++++++   oooooooooooooooooooooooo   +++++++++",
"+++++++++   oooooooooooooooooooooooo   +++++++++",
"+++++++++   oooooooooooooooooooooooo   +++++++++",
"+++++++++   oooooooooooooooooooooooo   +++++++++",
"+++++++++   oooooooooooooooooooooooo   +++++++++",
"+++++++++   oooooooooooooooooooooooo   +++++++++",
"+++++++++   oooooooooooooooooooooooo   +++++++++",
"+++++++++   ........................   +++++++++",
"+++++++++   ........................   +++++++++",
"+++++++++   ........................   +++++++++",
"+++++++++   ........................   +++++++++",
"+++++++++   ........................   +++++++++",
"+++++++++   ........................   +++++++++",
"+++++++++   ........................   +++++++++",
"+++++++++   ........................   +++++++++",
"+++++++++   ........................   +++++++++",
"+++++++++   ......            ......   +++++++++",
"+++++++++   ......            ......   +++++++++",
"+++++++++   ......            ......   +++++++++",
"+++++++++   ......   ++++++   ......   +++++++++",
"+++++++++   ......   ++++++   ......   +++++++++",
"+++++++++   ......   ++++++   ......   +++++++++",
"+++++++++            ++++++            +++++++++",
"+++++++++            ++++++            +++++++++",
"+++++++++            ++++++            +++++++++"
};
