/* XPM */
static char *result[] = {
/* columns rows colors chars-per-pixel */
"32 32 6 1 ",
"  c #34343C",
". c #745C44",
"X c #ECB454",
"o c #D5C6B7",
"O c #EEE5DB",
"+ c None",
/* pixels */
"+++                        +++++",
"+++                        +++++",
"+++  OOOOOOXXXXXXXXXXXXXX  +++++",
"+++  OOOOOOXXXXXXXXXXXXXX  +++++",
"+++  OOXXXXXXXXXXXXXXXXXX  +++++",
"+++  OOXXXXXXXXXXXXXXXXXX  +++++",
"+++  XXXXooooooooooooXXXX  +++++",
"+++  XXXXooooooooooooXXXX  +++++",
"+++    oooooooooooooooo    +++++",
"+++    oooooooooooooooo    +++++",
"+++++  oo    oooo    oo  +++++++",
"+++++  oo    oooo    oo  +++++++",
"+++++  oo    oooo    oo  +++++++",
"+++++  oo    oooo    oo  +++++++",
"+++++  oooooooooooooooo  +++++++",
"+++++  oooooooooooooooo  +++++++",
"+++++  oooooooooooooooo  +++++++",
"+++++  oooooooooooooooo  +++++++",
"+++++  oooooooooooooooo  +++++++",
"+++++  oooooooooooooooo  +++++++",
"+++++  ........oo......  +++++++",
"+++++  ........oo......  +++++++",
"+++++  ................  +++++++",
"+++++  ................  +++++++",
"+++++  ................  +++++++",
"+++++  ................  +++++++",
"+++++  ....        ....  +++++++",
"+++++  ....        ....  +++++++",
"+++++        ++++  ....  +++++++",
"+++++        ++++  ....  +++++++",
"+++++++++++++++++        +++++++",
"+++++++++++++++++        +++++++"
};
