/* XPM */
static char *result[] = {
/* columns rows colors chars-per-pixel */
"48 48 6 1 ",
"  c #353540",
". c #735B42",
"X c #EEB551",
"o c #D2C1B1",
"O c #EDE4DA",
"+ c None",
/* pixels */
"++++++++++++++++++++++++++++++++++++++++++++++++",
"++++++++++++++++++++++++++++++++++++++++++++++++",
"++++++++++++++++++++++++++++++++++++++++++++++++",
"+++++++++++                             ++++++++",
"+++++++++++                             ++++++++",
"+++++++++++  OOOOOOOOXXXXXXXXXXXXXXXX   ++++++++",
"+++++++++++  OOOOOOOOXXXXXXXXXXXXXXXX   ++++++++",
"+++++++++++  OOOOOOOOXXXXXXXXXXXXXXXX   ++++++++",
"+++++++++++  OOOXXXXXXXXXXXXXXXXXXXXX   ++++++++",
"+++++++++++  OOOXXXXXXXXXXXXXXXXXXXXX   ++++++++",
"+++++++++++  OOOXXXXXXXXXXXXXXXXXXXXX   ++++++++",
"+++++++++++  XXXXXXoooooooooooooXXXXX   ++++++++",
"+++++++++++  XXXXXXoooooooooooooXXXXX   ++++++++",
"+++++++++++  XXXooooooooooooooooooo     ++++++++",
"+++++++++++  XXXooooooooooooooooooo     ++++++++",
"+++++++++++  XXXooooooooooooooooooo     ++++++++",
"+++++++++++  XXXooo     oooooooo     +++++++++++",
"+++++++++++  XXXooo     oooooooo     +++++++++++",
"+++++++++++  XXXooo     oooooooo     +++++++++++",
"+++++++++++  oooooo     oooooooo     +++++++++++",
"+++++++++++  oooooo     oooooooo     +++++++++++",
"+++++++++++  oooooooooooooooooooooo  +++++++++++",
"+++++++++++  oooooooooooooooooooooo  +++++++++++",
"+++++++++++  oooooooooooooooooooooo  +++++++++++",
"+++++++++++  oooooooooooooooooooooo  +++++++++++",
"+++++++++++  oooooooooooooooooooooo  +++++++++++",
"+++++++++++  oooooooooooooooooooooo  +++++++++++",
"+++++++++++  oooooooooooooooooooooo  +++++++++++",
"+++++++++++  oooooooooooooooooooooo  +++++++++++",
"+++++++++++  ..............oo......  +++++++++++",
"+++++++++++  ..............oo......  +++++++++++",
"+++++++++++  ..............oo......  +++++++++++",
"+++++++++++  ......................  +++++++++++",
"+++++++++++  ......................  +++++++++++",
"+++++++++++  ......................  +++++++++++",
"++++++++     ......................  +++++++++++",
"++++++++     ......................  +++++++++++",
"++++++++   ........          ......  +++++++++++",
"++++++++   ........          ......  +++++++++++",
"++++++++   ........          ......  +++++++++++",
"++++++++             ++++++     ...  +++++++++++",
"++++++++             ++++++     ...  +++++++++++",
"++++++++             ++++++     ...  +++++++++++",
"+++++++++++++++++++++++++++++   ...  +++++++++++",
"+++++++++++++++++++++++++++++   ...  +++++++++++",
"+++++++++++++++++++++++++++++        +++++++++++",
"+++++++++++++++++++++++++++++        +++++++++++",
"+++++++++++++++++++++++++++++        +++++++++++"
};
