/* XPM */
static char *result[] = {
/* columns rows colors chars-per-pixel */
"48 48 6 1 ",
"  c #34343C",
". c #745C44",
"X c #ECB454",
"o c #D5C6B7",
"O c #EEE5DB",
"+ c None",
/* pixels */
"++++++                                     +++++",
"++++++                                     +++++",
"++++++                                     +++++",
"++++++   OOOOOOOOOXXXXXXXXXXXXXXXXXXXXX    +++++",
"++++++   OOOOOOOOOXXXXXXXXXXXXXXXXXXXXX    +++++",
"++++++   OOOOOOOOOXXXXXXXXXXXXXXXXXXXXX    +++++",
"++++++   OOOXXXXXXXXXXXXXXXXXXXXXXXXXXX    +++++",
"++++++   OOOXXXXXXXXXXXXXXXXXXXXXXXXXXX    +++++",
"++++++   OOOXXXXXXXXXXXXXXXXXXXXXXXXXXX    +++++",
"++++++   XXXXXXooooooooooooooooooXXXXXX    +++++",
"++++++   XXXXXXooooooooooooooooooXXXXXX    +++++",
"++++++   XXXXXXooooooooooooooooooXXXXXX    +++++",
"++++++      oooooooooooooooooooooooo       +++++",
"++++++      oooooooooooooooooooooooo       +++++",
"++++++      oooooooooooooooooooooooo       +++++",
"+++++++++   ooo      oooooo      ooo   +++++++++",
"+++++++++   ooo      oooooo      ooo   +++++++++",
"+++++++++   ooo      oooooo      ooo   +++++++++",
"+++++++++   ooo      oooooo      ooo   +++++++++",
"+++++++++   ooo      oooooo      ooo   +++++++++",
"+++++++++   ooo      oooooo      ooo   +++++++++",
"+++++++++   oooooooooooooooooooooooo   +++++++++",
"+++++++++   oooooooooooooooooooooooo   +++++++++",
"+++++++++   oooooooooooooooooooooooo   +++++++++",
"+++++++++   oooooooooooooooooooooooo   +++++++++",
"+++++++++   oooooooooooooooooooooooo   +++++++++",
"+++++++++   oooooooooooooooooooooooo   +++++++++",
"+++++++++   oooooooooooooooooooooooo   +++++++++",
"+++++++++   oooooooooooooooooooooooo   +++++++++",
"+++++++++   oooooooooooooooooooooooo   +++++++++",
"+++++++++   ............ooo.........   +++++++++",
"+++++++++   ............ooo.........   +++++++++",
"+++++++++   ............ooo.........   +++++++++",
"+++++++++   ........................   +++++++++",
"+++++++++   ........................   +++++++++",
"+++++++++   ........................   +++++++++",
"+++++++++   ........................   +++++++++",
"+++++++++   ........................   +++++++++",
"+++++++++   ........................   +++++++++",
"+++++++++   ......            ......   +++++++++",
"+++++++++   ......            ......   +++++++++",
"+++++++++   ......            ......   +++++++++",
"+++++++++   ......   ++++++            +++++++++",
"+++++++++   ......   ++++++            +++++++++",
"+++++++++   ......   ++++++            +++++++++",
"+++++++++            +++++++++++++++++++++++++++",
"+++++++++            +++++++++++++++++++++++++++",
"+++++++++            +++++++++++++++++++++++++++"
};
